999
dxfrw 0.6.3
  0
SECTION
  2
HEADER
  9
$ACADVER
  1
AC1021
  9
$DWGCODEPAGE
  3
ANSI_1252
  9
$INSBASE
 10
0
 20
0
 30
0
  9
$EXTMIN
 10
0
 20
0
 30
0
  9
$EXTMAX
 10
51006.54209829943
 20
5100.000000000054
 30
0
  9
$LIMMIN
 10
0
 20
0
  9
$LIMMAX
 10
12
 20
9
  9
$ORTHOMODE
 70
    0
  9
$REGENMODE
 70
    1
  9
$FILLMODE
 70
    1
  9
$QTEXTMODE
 70
    0
  9
$MIRRTEXT
 70
    1
  9
$LTSCALE
 40
1
  9
$ATTMODE
 70
    1
  9
$TEXTSIZE
 40
0.2
  9
$TRACEWID
 40
0.05
  9
$TEXTSTYLE
  7
Standard
  9
$CLAYER
  8
text
  9
$CELTYPE
  6
ByLayer
  9
$CECOLOR
 62
  256
  9
$CELTSCALE
 40
1
  9
$DISPSILH
 70
    0
  9
$DIMSCALE
 40
1
  9
$DIMASZ
 40
0.18
  9
$DIMEXO
 40
0.0625
  9
$DIMDLI
 40
0.38
  9
$DIMRND
 40
0
  9
$DIMDLE
 40
0
  9
$DIMEXE
 40
0.18
  9
$DIMTP
 40
0
  9
$DIMTM
 40
0
  9
$DIMTXT
 40
0.18
  9
$DIMCEN
 40
0.09
  9
$DIMTSZ
 40
0
  9
$DIMTOL
 70
    0
  9
$DIMLIM
 70
    0
  9
$DIMTIH
 70
    1
  9
$DIMTOH
 70
    1
  9
$DIMSE1
 70
    0
  9
$DIMSE2
 70
    0
  9
$DIMTAD
 70
    0
  9
$DIMZIN
 70
    0
  9
$DIMBLK
  1

  9
$DIMASO
 70
    1
  9
$DIMSHO
 70
    1
  9
$DIMPOST
  1

  9
$DIMAPOST
  1

  9
$DIMALT
 70
    0
  9
$DIMALTD
 70
    2
  9
$DIMALTF
 40
25.4
  9
$DIMLFAC
 40
1
  9
$DIMTOFL
 70
    0
  9
$DIMTVP
 40
0
  9
$DIMTIX
 70
    0
  9
$DIMSOXD
 70
    0
  9
$DIMSAH
 70
    0
  9
$DIMBLK1
  1

  9
$DIMBLK2
  1

  9
$DIMSTYLE
  2
Standard
  9
$DIMCLRD
 70
    0
  9
$DIMCLRE
 70
    0
  9
$DIMCLRT
 70
    0
  9
$DIMTFAC
 40
1
  9
$DIMGAP
 40
0.09
  9
$DIMJUST
 70
    0
  9
$DIMSD1
 70
    0
  9
$DIMSD2
 70
    0
  9
$DIMTOLJ
 70
    1
  9
$DIMTZIN
 70
    0
  9
$DIMALTZ
 70
    0
  9
$DIMALTTZ
 70
    0
  9
$DIMUPT
 70
    0
  9
$DIMDEC
 70
    4
  9
$DIMTDEC
 70
    4
  9
$DIMALTU
 70
    2
  9
$DIMALTTD
 70
    2
  9
$DIMTXSTY
  7
Standard
  9
$DIMAUNIT
 70
    0
  9
$DIMADEC
 70
    0
  9
$DIMALTRND
 40
0
  9
$DIMAZIN
 70
    0
  9
$DIMDSEP
 70
   46
  9
$DIMATFIT
 70
    3
  9
$DIMFRAC
 70
    0
  9
$DIMLDRBLK
  1

  9
$DIMLUNIT
 70
    2
  9
$DIMLWD
 70
   -2
  9
$DIMLWE
 70
   -2
  9
$DIMTMOVE
 70
    0
  9
$DIMFXL
 40
1
  9
$DIMFXLON
 70
    0
  9
$DIMJOGANG
 40
0.7854
  9
$DIMTFILL
 70
    0
  9
$DIMTFILLCLR
 70
    0
  9
$DIMARCSYM
 70
    0
  9
$DIMLTYPE
  6

  9
$DIMLTEX1
  6

  9
$DIMLTEX2
  6

  9
$LUNITS
 70
    2
  9
$LUPREC
 70
    4
  9
$SKETCHINC
 40
0.1
  9
$FILLETRAD
 40
0
  9
$AUNITS
 70
    0
  9
$AUPREC
 70
    0
  9
$MENU
  1
.
  9
$ELEVATION
 40
0
  9
$PELEVATION
 40
0
  9
$THICKNESS
 40
0
  9
$LIMCHECK
 70
    0
  9
$CHAMFERA
 40
0
  9
$CHAMFERB
 40
0
  9
$CHAMFERC
 40
0
  9
$CHAMFERD
 40
0
  9
$SKPOLY
 70
    0
  9
$USRTIMER
 70
    1
  9
$ANGBASE
 50
0
  9
$ANGDIR
 70
    0
  9
$PDMODE
 70
    0
  9
$PDSIZE
 40
0
  9
$PLINEWID
 40
0
  9
$SPLFRAME
 70
    0
  9
$SPLINETYPE
 70
    6
  9
$SPLINESEGS
 70
    8
  9
$HANDSEED
  5
20000
  9
$SURFTAB1
 70
    6
  9
$SURFTAB2
 70
    6
  9
$SURFTYPE
 70
    6
  9
$SURFU
 70
    6
  9
$SURFV
 70
    6
  9
$UCSBASE
  2

  9
$UCSNAME
  2

  9
$UCSORG
 10
0
 20
0
 30
0
  9
$UCSXDIR
 10
1
 20
0
 30
0
  9
$UCSYDIR
 10
0
 20
1
 30
0
  9
$UCSORTHOREF
  2

  9
$UCSORTHOVIEW
 70
    0
  9
$UCSORGTOP
 10
0
 20
0
 30
0
  9
$UCSORGBOTTOM
 10
0
 20
0
 30
0
  9
$UCSORGLEFT
 10
0
 20
0
 30
0
  9
$UCSORGRIGHT
 10
0
 20
0
 30
0
  9
$UCSORGFRONT
 10
0
 20
0
 30
0
  9
$UCSORGBACK
 10
0
 20
0
 30
0
  9
$PUCSBASE
  2

  9
$PUCSNAME
  2

  9
$PUCSORG
 10
0
 20
0
 30
0
  9
$PUCSXDIR
 10
1
 20
0
 30
0
  9
$PUCSYDIR
 10
0
 20
1
 30
0
  9
$PUCSORTHOREF
  2

  9
$PUCSORTHOVIEW
 70
    0
  9
$PUCSORGTOP
 10
0
 20
0
 30
0
  9
$PUCSORGBOTTOM
 10
0
 20
0
 30
0
  9
$PUCSORGLEFT
 10
0
 20
0
 30
0
  9
$PUCSORGRIGHT
 10
0
 20
0
 30
0
  9
$PUCSORGFRONT
 10
0
 20
0
 30
0
  9
$PUCSORGBACK
 10
0
 20
0
 30
0
  9
$USERI1
 70
    0
  9
$USERI2
 70
    0
  9
$USERI3
 70
    0
  9
$USERI4
 70
    0
  9
$USERI5
 70
    0
  9
$USERR1
 40
0
  9
$USERR2
 40
0
  9
$USERR3
 40
0
  9
$USERR4
 40
0
  9
$USERR5
 40
0
  9
$WORLDVIEW
 70
    1
  9
$SHADEDGE
 70
    3
  9
$SHADEDIF
 70
   70
  9
$TILEMODE
 70
    1
  9
$MAXACTVP
 70
   64
  9
$PINSBASE
 10
0
 20
0
 30
0
  9
$PLIMCHECK
 70
    0
  9
$PEXTMIN
 10
1e+20
 20
1e+20
 30
1e+20
  9
$PEXTMAX
 10
-1e+20
 20
-1e+20
 30
-1e+20
  9
$GRIDMODE
 70
    1
  9
$SNAPSTYLE
 70
    0
  9
$PLIMMIN
 10
0
 20
0
  9
$PLIMMAX
 10
12
 20
9
  9
$UNITMODE
 70
    0
  9
$VISRETAIN
 70
    1
  9
$PLINEGEN
 70
    0
  9
$PSLTSCALE
 70
    1
  9
$TREEDEPTH
 70
 3020
  9
$CMLSTYLE
  2
Standard
  9
$CMLJUST
 70
    0
  9
$CMLSCALE
 40
1
  9
$PROXYGRAPHICS
 70
    1
  9
$MEASUREMENT
 70
    1
  9
$CELWEIGHT
370
   -1
  9
$ENDCAPS
280
    0
  9
$JOINSTYLE
280
    0
  9
$LWDISPLAY
290
    0
  9
$INSUNITS
 70
    4
  9
$HYPERLINKBASE
  1

  9
$STYLESHEET
  1

  9
$XEDIT
290
    1
  9
$CEPSNTYPE
380
    0
  9
$PSTYLEMODE
290
    1
  9
$EXTNAMES
290
    1
  9
$PSVPSCALE
 40
0
  9
$OLESTARTUP
290
    0
  9
$SORTENTS
280
  127
  9
$INDEXCTL
280
    0
  9
$HIDETEXT
280
    1
  9
$XCLIPFRAME
290
    0
  9
$HALOGAP
280
    0
  9
$OBSCOLOR
 70
  257
  9
$OBSLTYPE
280
    0
  9
$INTERSECTIONDISPLAY
280
    0
  9
$INTERSECTIONCOLOR
 70
  257
  9
$DIMASSOC
280
    1
  9
$PROJECTNAME
  1

  9
$CAMERADISPLAY
290
    0
  9
$LENSLENGTH
 40
50
  9
$CAMERAHEIGHT
 40
0
  9
$STEPSPERSEC
 40
2
  9
$STEPSIZE
 40
50
  9
$3DDWFPREC
 40
2
  9
$PSOLWIDTH
 40
5
  9
$PSOLHEIGHT
 40
80
  9
$LOFTANG1
 40
1.570796326794897
  9
$LOFTANG2
 40
1.570796326794897
  9
$LOFTMAG1
 40
0
  9
$LOFTMAG2
 40
0
  9
$LOFTPARAM
 70
    7
  9
$LOFTNORMALS
280
    1
  9
$LATITUDE
 40
1
  9
$LONGITUDE
 40
1
  9
$NORTHDIRECTION
 40
0
  9
$TIMEZONE
 70
-8000
  9
$LIGHTGLYPHDISPLAY
280
    1
  9
$TILEMODELIGHTSYNCH
280
    1
  9
$SOLIDHIST
280
    1
  9
$SHOWHIST
280
    1
  9
$DWFFRAME
280
    2
  9
$DGNFRAME
280
    0
  9
$REALWORLDSCALE
290
    1
  9
$INTERFERECOLOR
 62
    1
  9
$CSHADOW
280
    0
  9
$SHADOWPLANELOCATION
 40
0
  0
ENDSEC
  0
SECTION
  2
CLASSES
  0
ENDSEC
  0
SECTION
  2
TABLES
  0
TABLE
  2
VPORT
  5
8
330
0
100
AcDbSymbolTable
 70
    1
  0
VPORT
  5
31
330
2
100
AcDbSymbolTableRecord
100
AcDbViewportTableRecord
  2
*ACTIVE
 70
    0
 10
0
 20
0
 11
1
 21
1
 12
24280.39941783371
 22
6345.435856230793
 13
0
 23
0
 14
10
 24
10
 15
10
 25
10
 16
0
 26
0
 36
1
 17
0
 27
0
 37
0
 40
19705.58584992366
 41
1.666380051590714
 42
50
 43
0
 44
0
 50
0
 51
0
 71
    0
 72
  100
 73
    1
 74
    3
 75
    0
 76
    1
 77
    0
 78
    0
281
    0
 65
    1
110
0
120
0
130
0
111
1
121
0
131
0
112
0
122
1
132
0
 79
    0
146
0
348
10020
 60
    7
 61
    5
292
1
282
    1
141
0
142
0
 63
  250
421
3358443
  0
ENDTAB
  0
TABLE
  2
LTYPE
  5
5
330
0
100
AcDbSymbolTable
 70
    4
  0
LTYPE
  5
14
330
5
100
AcDbSymbolTableRecord
100
AcDbLinetypeTableRecord
  2
ByBlock
 70
    0
  3

 72
   65
 73
    0
 40
0
  0
LTYPE
  5
15
330
5
100
AcDbSymbolTableRecord
100
AcDbLinetypeTableRecord
  2
ByLayer
 70
    0
  3

 72
   65
 73
    0
 40
0
  0
LTYPE
  5
16
330
5
100
AcDbSymbolTableRecord
100
AcDbLinetypeTableRecord
  2
Continuous
 70
    0
  3
Solid line
 72
   65
 73
    0
 40
0
  0
LTYPE
  5
32
330
5
100
AcDbSymbolTableRecord
100
AcDbLinetypeTableRecord
  2
DOT
 70
    0
  3
Dot . . . . . . . . . . . . . . . . . . . . . .
 72
   65
 73
    2
 40
6.35
 49
0
 74
    0
 49
-6.35
 74
    0
  0
LTYPE
  5
33
330
5
100
AcDbSymbolTableRecord
100
AcDbLinetypeTableRecord
  2
DOTTINY
 70
    0
  3
Dot (.15x) .....................................
 72
   65
 73
    2
 40
0.9525
 49
0
 74
    0
 49
-0.9525
 74
    0
  0
LTYPE
  5
34
330
5
100
AcDbSymbolTableRecord
100
AcDbLinetypeTableRecord
  2
DOT2
 70
    0
  3
Dot (.5x) .....................................
 72
   65
 73
    2
 40
3.175
 49
0
 74
    0
 49
-3.175
 74
    0
  0
LTYPE
  5
35
330
5
100
AcDbSymbolTableRecord
100
AcDbLinetypeTableRecord
  2
DOTX2
 70
    0
  3
Dot (2x) .  .  .  .  .  .  .  .  .  .  .  .  .
 72
   65
 73
    2
 40
12.7
 49
0
 74
    0
 49
-12.7
 74
    0
  0
LTYPE
  5
36
330
5
100
AcDbSymbolTableRecord
100
AcDbLinetypeTableRecord
  2
DASHED
 70
    0
  3
Dashed _ _ _ _ _ _ _ _ _ _ _ _ _ _ _ _ _
 72
   65
 73
    2
 40
19.05
 49
12.7
 74
    0
 49
-6.35
 74
    0
  0
LTYPE
  5
37
330
5
100
AcDbSymbolTableRecord
100
AcDbLinetypeTableRecord
  2
DASHEDTINY
 70
    0
  3
Dashed (.15x) _ _ _ _ _ _ _ _ _ _ _ _ _ _ _ _ _
 72
   65
 73
    2
 40
2.8575
 49
1.905
 74
    0
 49
-0.9525
 74
    0
  0
LTYPE
  5
38
330
5
100
AcDbSymbolTableRecord
100
AcDbLinetypeTableRecord
  2
DASHED2
 70
    0
  3
Dashed (.5x) _ _ _ _ _ _ _ _ _ _ _ _ _ _ _ _ _
 72
   65
 73
    2
 40
9.524999999999999
 49
6.35
 74
    0
 49
-3.175
 74
    0
  0
LTYPE
  5
39
330
5
100
AcDbSymbolTableRecord
100
AcDbLinetypeTableRecord
  2
DASHEDX2
 70
    0
  3
Dashed (2x) ____  ____  ____  ____  ____  ___
 72
   65
 73
    2
 40
38.09999999999999
 49
25.4
 74
    0
 49
-12.7
 74
    0
  0
LTYPE
  5
3A
330
5
100
AcDbSymbolTableRecord
100
AcDbLinetypeTableRecord
  2
DASHDOT
 70
    0
  3
Dash dot __ . __ . __ . __ . __ . __ . __ . __
 72
   65
 73
    4
 40
25.4
 49
12.7
 74
    0
 49
-6.35
 74
    0
 49
0
 74
    0
 49
-6.35
 74
    0
  0
LTYPE
  5
3B
330
5
100
AcDbSymbolTableRecord
100
AcDbLinetypeTableRecord
  2
DASHDOTTINY
 70
    0
  3
Dash dot (.15x) _._._._._._._._._._._._._._._.
 72
   65
 73
    4
 40
3.81
 49
1.905
 74
    0
 49
-0.9525
 74
    0
 49
0
 74
    0
 49
-0.9525
 74
    0
  0
LTYPE
  5
3C
330
5
100
AcDbSymbolTableRecord
100
AcDbLinetypeTableRecord
  2
DASHDOT2
 70
    0
  3
Dash dot (.5x) _._._._._._._._._._._._._._._.
 72
   65
 73
    4
 40
12.7
 49
6.35
 74
    0
 49
-3.175
 74
    0
 49
0
 74
    0
 49
-3.175
 74
    0
  0
LTYPE
  5
3D
330
5
100
AcDbSymbolTableRecord
100
AcDbLinetypeTableRecord
  2
DASHDOTX2
 70
    0
  3
Dash dot (2x) ____  .  ____  .  ____  .  ___
 72
   65
 73
    4
 40
50.8
 49
25.4
 74
    0
 49
-12.7
 74
    0
 49
0
 74
    0
 49
-12.7
 74
    0
  0
LTYPE
  5
3E
330
5
100
AcDbSymbolTableRecord
100
AcDbLinetypeTableRecord
  2
DIVIDE
 70
    0
  3
Divide ____ . . ____ . . ____ . . ____ . . ____
 72
   65
 73
    6
 40
31.75
 49
12.7
 74
    0
 49
-6.35
 74
    0
 49
0
 74
    0
 49
-6.35
 74
    0
 49
0
 74
    0
 49
-6.35
 74
    0
  0
LTYPE
  5
3F
330
5
100
AcDbSymbolTableRecord
100
AcDbLinetypeTableRecord
  2
DIVIDETINY
 70
    0
  3
Divide (.15x) __..__..__..__..__..__..__..__.._
 72
   65
 73
    6
 40
4.7625
 49
1.905
 74
    0
 49
-0.9525
 74
    0
 49
0
 74
    0
 49
-0.9525
 74
    0
 49
0
 74
    0
 49
-0.9525
 74
    0
  0
LTYPE
  5
40
330
5
100
AcDbSymbolTableRecord
100
AcDbLinetypeTableRecord
  2
DIVIDE2
 70
    0
  3
Divide (.5x) __..__..__..__..__..__..__..__.._
 72
   65
 73
    6
 40
15.875
 49
6.35
 74
    0
 49
-3.175
 74
    0
 49
0
 74
    0
 49
-3.175
 74
    0
 49
0
 74
    0
 49
-3.175
 74
    0
  0
LTYPE
  5
41
330
5
100
AcDbSymbolTableRecord
100
AcDbLinetypeTableRecord
  2
DIVIDEX2
 70
    0
  3
Divide (2x) ________  .  .  ________  .  .  _
 72
   65
 73
    6
 40
63.5
 49
25.4
 74
    0
 49
-12.7
 74
    0
 49
0
 74
    0
 49
-12.7
 74
    0
 49
0
 74
    0
 49
-12.7
 74
    0
  0
LTYPE
  5
42
330
5
100
AcDbSymbolTableRecord
100
AcDbLinetypeTableRecord
  2
BORDER
 70
    0
  3
Border __ __ . __ __ . __ __ . __ __ . __ __ .
 72
   65
 73
    6
 40
44.45
 49
12.7
 74
    0
 49
-6.35
 74
    0
 49
12.7
 74
    0
 49
-6.35
 74
    0
 49
0
 74
    0
 49
-6.35
 74
    0
  0
LTYPE
  5
43
330
5
100
AcDbSymbolTableRecord
100
AcDbLinetypeTableRecord
  2
BORDERTINY
 70
    0
  3
Border (.15x) __.__.__.__.__.__.__.__.__.__.__.
 72
   65
 73
    6
 40
6.6675
 49
1.905
 74
    0
 49
-0.9525
 74
    0
 49
1.905
 74
    0
 49
-0.9525
 74
    0
 49
0
 74
    0
 49
-0.9525
 74
    0
  0
LTYPE
  5
44
330
5
100
AcDbSymbolTableRecord
100
AcDbLinetypeTableRecord
  2
BORDER2
 70
    0
  3
Border (.5x) __.__.__.__.__.__.__.__.__.__.__.
 72
   65
 73
    6
 40
22.225
 49
6.35
 74
    0
 49
-3.175
 74
    0
 49
6.35
 74
    0
 49
-3.175
 74
    0
 49
0
 74
    0
 49
-3.175
 74
    0
  0
LTYPE
  5
45
330
5
100
AcDbSymbolTableRecord
100
AcDbLinetypeTableRecord
  2
BORDERX2
 70
    0
  3
Border (2x) ____  ____  .  ____  ____  .  ___
 72
   65
 73
    6
 40
88.89999999999999
 49
25.4
 74
    0
 49
-12.7
 74
    0
 49
25.4
 74
    0
 49
-12.7
 74
    0
 49
0
 74
    0
 49
-12.7
 74
    0
  0
LTYPE
  5
46
330
5
100
AcDbSymbolTableRecord
100
AcDbLinetypeTableRecord
  2
CENTER
 70
    0
  3
Center ____ _ ____ _ ____ _ ____ _ ____ _ ____
 72
   65
 73
    4
 40
50.8
 49
31.75
 74
    0
 49
-6.35
 74
    0
 49
6.35
 74
    0
 49
-6.35
 74
    0
  0
LTYPE
  5
47
330
5
100
AcDbSymbolTableRecord
100
AcDbLinetypeTableRecord
  2
CENTERTINY
 70
    0
  3
Center (.15x) ___ _ ___ _ ___ _ ___ _ ___ _ ___
 72
   65
 73
    4
 40
7.619999999999999
 49
4.7625
 74
    0
 49
-0.9525
 74
    0
 49
0.9525
 74
    0
 49
-0.9525
 74
    0
  0
LTYPE
  5
48
330
5
100
AcDbSymbolTableRecord
100
AcDbLinetypeTableRecord
  2
CENTER2
 70
    0
  3
Center (.5x) ___ _ ___ _ ___ _ ___ _ ___ _ ___
 72
   65
 73
    4
 40
28.575
 49
19.05
 74
    0
 49
-3.175
 74
    0
 49
3.175
 74
    0
 49
-3.175
 74
    0
  0
LTYPE
  5
49
330
5
100
AcDbSymbolTableRecord
100
AcDbLinetypeTableRecord
  2
CENTERX2
 70
    0
  3
Center (2x) ________  __  ________  __  _____
 72
   65
 73
    4
 40
101.6
 49
63.5
 74
    0
 49
-12.7
 74
    0
 49
12.7
 74
    0
 49
-12.7
 74
    0
  0
ENDTAB
  0
TABLE
  2
LAYER
  5
2
330
0
100
AcDbSymbolTable
 70
    1
  0
LAYER
  5
10
330
2
100
AcDbSymbolTableRecord
100
AcDbLayerTableRecord
  2
0
 70
    0
 62
    7
  6
CONTINUOUS
370
   -3
390
F
  0
LAYER
  5
4A
330
2
100
AcDbSymbolTableRecord
100
AcDbLayerTableRecord
  2
FINAL
 70
    0
 62
    3
  6
CONTINUOUS
370
    0
390
F
  0
LAYER
  5
4B
330
2
100
AcDbSymbolTableRecord
100
AcDbLayerTableRecord
  2
text
 70
    0
 62
    6
  6
CONTINUOUS
370
    0
390
F
  0
ENDTAB
  0
TABLE
  2
STYLE
  5
3
330
0
100
AcDbSymbolTable
 70
    3
  0
STYLE
  5
4C
330
2
100
AcDbSymbolTableRecord
100
AcDbTextStyleTableRecord
  2
standard
 70
    0
 40
0
 41
1
 50
0
 71
    0
 42
1
  3
standard
  4

  0
ENDTAB
  0
TABLE
  2
VIEW
  5
6
330
0
100
AcDbSymbolTable
 70
    0
  0
ENDTAB
  0
TABLE
  2
UCS
  5
7
330
0
100
AcDbSymbolTable
 70
    0
  0
ENDTAB
  0
TABLE
  2
APPID
  5
9
330
0
100
AcDbSymbolTable
 70
    1
  0
APPID
  5
12
330
9
100
AcDbSymbolTableRecord
100
AcDbRegAppTableRecord
  2
ACAD
 70
    0
  0
APPID
  5
4D
330
9
100
AcDbSymbolTableRecord
100
AcDbRegAppTableRecord
  2
LibreCad
 70
    0
  0
ENDTAB
  0
TABLE
  2
DIMSTYLE
  5
A
330
0
100
AcDbSymbolTable
 70
    1
100
AcDbDimStyleTable
 71
    1
  0
DIMSTYLE
105
4E
330
A
100
AcDbSymbolTableRecord
100
AcDbDimStyleTableRecord
  2
Standard
 70
    0
 40
1
 41
0.18
 42
0.0625
 43
0.38
 44
0.18
 45
0
 46
0
 47
0
 48
0
 49
1
140
0.18
141
0.09
142
0
143
25.4
144
1
145
0
146
1
147
0.09
148
0
 71
    0
 72
    0
 73
    1
 74
    1
 75
    0
 76
    0
 77
    0
 78
    0
 79
    0
170
    0
171
    2
172
    0
173
    0
174
    0
175
    0
176
    0
177
    0
178
    0
179
    0
271
    4
272
    4
273
    2
274
    2
275
    0
276
    0
277
    2
278
   46
279
    0
280
    0
281
    0
282
    0
283
    1
284
    0
285
    0
286
    0
288
    0
289
    3
340
4C
  0
ENDTAB
  0
TABLE
  2
BLOCK_RECORD
  5
1
330
0
100
AcDbSymbolTable
 70
    2
  0
BLOCK_RECORD
  5
1F
330
1
100
AcDbSymbolTableRecord
100
AcDbBlockTableRecord
  2
*Model_Space
 70
    0
280
    1
281
    0
  0
BLOCK_RECORD
  5
1E
330
1
100
AcDbSymbolTableRecord
100
AcDbBlockTableRecord
  2
*Paper_Space
 70
    0
280
    1
281
    0
  0
BLOCK_RECORD
  5
4F
330
1
100
AcDbSymbolTableRecord
100
AcDbBlockTableRecord
  2
FLAT-struckv2
 70
    0
280
    1
281
    0
  0
ENDTAB
  0
ENDSEC
  0
SECTION
  2
BLOCKS
  0
BLOCK
  5
20
330
1F
100
AcDbEntity
  8
0
100
AcDbBlockBegin
  2
*Model_Space
 70
    0
 10
0
 20
0
 30
0
  3
*Model_Space
  1

  0
ENDBLK
  5
21
330
1F
100
AcDbEntity
  8
0
100
AcDbBlockEnd
  0
BLOCK
  5
1C
330
1B
100
AcDbEntity
  8
0
100
AcDbBlockBegin
  2
*Paper_Space
 70
    0
 10
0
 20
0
 30
0
  3
*Paper_Space
  1

  0
ENDBLK
  5
1D
330
1F
100
AcDbEntity
  8
0
100
AcDbBlockEnd
  0
BLOCK
  5
50
330
4F
100
AcDbEntity
  8
0
100
AcDbBlockBegin
  2
FLAT-struckv2
 70
    0
 10
0
 20
0
  3
FLAT-struckv2
  1

  0
LINE
  5
52
100
AcDbEntity
  8
0
  6
ByLayer
 62
  256
370
   -1
100
AcDbLine
 10
-7777.593113017199
 20
-2161.03205582594
 11
-7777.593113017199
 21
-4261.032055825948
  0
LINE
  5
53
100
AcDbEntity
  8
0
  6
ByLayer
 62
  256
370
   -1
100
AcDbLine
 10
-4653.15652633137
 20
-4561.032055825941
 11
-4758.97391127188
 21
-4201.219830630276
  0
LINE
  5
54
100
AcDbEntity
  8
0
  6
ByLayer
 62
  256
370
   -1
100
AcDbLine
 10
-4758.97391127188
 20
-2161.032055825941
 11
-4470.037120968251
 21
-2161.032055825942
  0
LINE
  5
55
100
AcDbEntity
  8
0
  6
ByLayer
 62
  256
370
   -1
100
AcDbLine
 10
-8683.36447895725
 20
-4201.219830630279
 11
-8683.36447895725
 21
-2161.03205582594
  0
LINE
  5
56
100
AcDbEntity
  8
0
  6
ByLayer
 62
  256
370
   -1
100
AcDbLine
 10
-8077.593113017199
 20
-6261.032055825947
 11
-8665.774267134289
 21
-4261.032055825946
  0
LINE
  5
57
100
AcDbEntity
  8
0
  6
ByLayer
 62
  256
370
   -1
100
AcDbLine
 10
24236.97387043378
 20
-4261.032055825948
 11
23596.45733068018
 21
-3250.238838323743
  0
LINE
  5
58
100
AcDbEntity
  8
0
  6
ByLayer
 62
  256
370
   -1
100
AcDbLine
 10
-8229.13647804737
 20
-2161.032055825941
 11
-7829.13647804739
 21
-2161.03205582594
  0
LINE
  5
59
100
AcDbEntity
  8
0
  6
ByLayer
 62
  256
370
   -1
100
AcDbLine
 10
-8683.36447895725
 20
-2161.03205582594
 11
-8229.13647804737
 21
-2161.032055825941
  0
LINE
  5
5A
100
AcDbEntity
  8
0
  6
ByLayer
 62
  256
370
   -1
100
AcDbLine
 10
-7777.593113017199
 20
-4261.032055825948
 11
-7777.593113017199
 21
-6661.032055825947
  0
LINE
  5
5B
100
AcDbEntity
  8
0
  6
ByLayer
 62
  256
370
   -1
100
AcDbLine
 10
-7829.13647804739
 20
-6661.032055825945
 11
-7777.593113017199
 21
-6661.032055825947
  0
LINE
  5
5C
100
AcDbEntity
  8
0
  6
ByLayer
 62
  256
370
   -1
100
AcDbLine
 10
-7829.13647804739
 20
-6661.032055825945
 11
-8077.593113017199
 21
-6661.032055825947
  0
LINE
  5
5D
100
AcDbEntity
  8
0
  6
ByLayer
 62
  256
370
   -1
100
AcDbLine
 10
-7777.593113017199
 20
-4261.032055825948
 11
-8665.774267134289
 21
-4261.032055825946
  0
LINE
  5
5E
100
AcDbEntity
  8
0
  6
ByLayer
 62
  256
370
   -1
100
AcDbLine
 10
-8665.774267134289
 20
-4261.032055825946
 11
-8683.36447895725
 21
-4201.219830630279
  0
LINE
  5
5F
100
AcDbEntity
  8
0
  6
ByLayer
 62
  256
370
   -1
100
AcDbLine
 10
-8683.36447895725
 20
-4201.219830630279
 11
-9283.36447895725
 21
-2161.032055825943
  0
LINE
  5
60
100
AcDbEntity
  8
0
  6
ByLayer
 62
  256
370
   -1
100
AcDbLine
 10
-4653.15652633137
 20
-4561.032055825941
 11
-3853.202545331831
 21
-4561.032055825941
  0
LINE
  5
61
100
AcDbEntity
  8
0
  6
ByLayer
 62
  256
370
   -1
100
AcDbLine
 10
-3853.202545331831
 20
-4561.032055825941
 11
-3853.202545331831
 21
-6661.032055825947
  0
LINE
  5
62
100
AcDbEntity
  8
0
  6
ByLayer
 62
  256
370
   -1
100
AcDbLine
 10
-4758.97391127188
 20
-4201.219830630276
 11
-4758.97391127188
 21
-2161.032055825941
  0
LINE
  5
63
100
AcDbEntity
  8
0
  6
ByLayer
 62
  256
370
   -1
100
AcDbLine
 10
-9283.36447895725
 20
-2161.032055825943
 11
-9029.1364780474
 21
-2161.03205582594
  0
LINE
  5
64
100
AcDbEntity
  8
0
  6
ByLayer
 62
  256
370
   -1
100
AcDbLine
 10
-4758.97391127188
 20
-4201.219830630276
 11
-5358.97391127188
 21
-2161.032055825941
  0
LINE
  5
65
100
AcDbEntity
  8
0
  6
ByLayer
 62
  256
370
   -1
100
AcDbLine
 10
24796.45733068018
 20
-5143.947721265725
 11
24236.97387043378
 21
-4261.032055825948
  0
LINE
  5
66
100
AcDbEntity
  8
0
  6
ByLayer
 62
  256
370
   -1
100
AcDbLine
 10
-8077.593113017199
 20
-6661.032055825947
 11
-8077.593113017199
 21
-6261.032055825947
  0
LINE
  5
67
100
AcDbEntity
  8
0
  6
ByLayer
 62
  256
370
   -1
100
AcDbLine
 10
-7829.13647804739
 20
-2161.03205582594
 11
-7777.593113017199
 21
-2161.03205582594
  0
LINE
  5
68
100
AcDbEntity
  8
0
  6
ByLayer
 62
  256
370
   -1
100
AcDbLine
 10
-9029.1364780474
 20
-2161.03205582594
 11
-8683.36447895725
 21
-2161.03205582594
  0
LINE
  5
69
100
AcDbEntity
  8
0
  6
ByLayer
 62
  256
370
   -1
100
AcDbLine
 10
32900.72540502265
 20
-2161.032055825945
 11
32900.72540502265
 21
-4261.032055825948
  0
LINE
  5
6A
100
AcDbEntity
  8
0
  6
ByLayer
 62
  256
370
   -1
100
AcDbLine
 10
17439.48726591497
 20
-2161.032055825946
 11
18502.87168224226
 21
-2161.032055825945
  0
LINE
  5
6B
100
AcDbEntity
  8
0
  6
ByLayer
 62
  256
370
   -1
100
AcDbLine
 10
32900.72540502265
 20
-4261.032055825948
 11
32183.80452899674
 21
-4261.032055825948
  0
LINE
  5
6C
100
AcDbEntity
  8
0
  6
ByLayer
 62
  256
370
   -1
100
AcDbLine
 10
16239.48726591497
 20
-2161.032055825948
 11
17439.48726591497
 21
-2161.032055825946
  0
LINE
  5
6D
100
AcDbEntity
  8
0
  6
ByLayer
 62
  256
370
   -1
100
AcDbLine
 10
32900.72540502265
 20
-4261.032055825948
 11
32900.72540502265
 21
-6661.032055825947
  0
LINE
  5
6E
100
AcDbEntity
  8
0
  6
ByLayer
 62
  256
370
   -1
100
AcDbLine
 10
32900.72540502265
 20
-6661.032055825947
 11
32600.72540502262
 21
-6661.032055825947
  0
LINE
  5
6F
100
AcDbEntity
  8
0
  6
ByLayer
 62
  256
370
   -1
100
AcDbLine
 10
5886.963324096945
 20
-6661.032055825947
 11
5586.963324097106
 21
-6661.032055825947
  0
LINE
  5
70
100
AcDbEntity
  8
0
  6
ByLayer
 62
  256
370
   -1
100
AcDbLine
 10
18202.87168224226
 20
-5259.430814016611
 11
18202.87168224226
 21
-6661.032055825947
  0
LINE
  5
71
100
AcDbEntity
  8
0
  6
ByLayer
 62
  256
370
   -1
100
AcDbLine
 10
32183.80452899674
 20
-4261.032055825948
 11
32053.08256708406
 21
-4054.740938767907
  0
LINE
  5
72
100
AcDbEntity
  8
0
  6
ByLayer
 62
  256
370
   -1
100
AcDbLine
 10
32053.08256708406
 20
-2161.032055825948
 11
32900.72540502265
 21
-2161.032055825945
  0
LINE
  5
73
100
AcDbEntity
  8
0
  6
ByLayer
 62
  256
370
   -1
100
AcDbLine
 10
5886.963324096945
 20
-2161.032055826006
 11
5886.963324096945
 21
-4561.032055826005
  0
LINE
  5
74
100
AcDbEntity
  8
0
  6
ByLayer
 62
  256
370
   -1
100
AcDbLine
 10
17439.48726591497
 20
-4054.740938767909
 11
16239.48726591497
 21
-2161.032055825948
  0
LINE
  5
75
100
AcDbEntity
  8
0
  6
ByLayer
 62
  256
370
   -1
100
AcDbLine
 10
18502.87168224226
 20
-4261.032055825948
 11
18502.87168224226
 21
-6661.032055825947
  0
LINE
  5
76
100
AcDbEntity
  8
0
  6
ByLayer
 62
  256
370
   -1
100
AcDbLine
 10
32600.72540502265
 20
-6261.032055825935
 11
32600.72540502265
 21
-4918.971027837782
  0
LINE
  5
77
100
AcDbEntity
  8
0
  6
ByLayer
 62
  256
370
   -1
100
AcDbLine
 10
18502.87168224226
 20
-6661.032055825947
 11
18202.87168224226
 21
-6661.032055825947
  0
LINE
  5
78
100
AcDbEntity
  8
0
  6
ByLayer
 62
  256
370
   -1
100
AcDbLine
 10
18502.87168224226
 20
-2161.032055825945
 11
18502.87168224226
 21
-4261.032055825948
  0
LINE
  5
79
100
AcDbEntity
  8
0
  6
ByLayer
 62
  256
370
   -1
100
AcDbLine
 10
30853.08256708406
 20
-2161.032055825954
 11
32053.08256708406
 21
-2161.032055825948
  0
LINE
  5
7A
100
AcDbEntity
  8
0
  6
ByLayer
 62
  256
370
   -1
100
AcDbLine
 10
32053.08256708406
 20
-4054.740938767907
 11
30853.08256708406
 21
-2161.032055825954
  0
LINE
  5
7B
100
AcDbEntity
  8
0
  6
ByLayer
 62
  256
370
   -1
100
AcDbLine
 10
18202.87168224226
 20
-5259.430814016611
 11
17570.20922782765
 21
-4261.032055825946
  0
LINE
  5
7C
100
AcDbEntity
  8
0
  6
ByLayer
 62
  256
370
   -1
100
AcDbLine
 10
32600.72540502265
 20
-4918.971027837782
 11
32183.80452899674
 21
-4261.032055825948
  0
LINE
  5
7D
100
AcDbEntity
  8
0
  6
ByLayer
 62
  256
370
   -1
100
AcDbLine
 10
32600.72540502262
 20
-6661.032055825947
 11
32600.72540502265
 21
-6261.032055825935
  0
LINE
  5
7E
100
AcDbEntity
  8
0
  6
ByLayer
 62
  256
370
   -1
100
AcDbLine
 10
5496.043347190249
 20
-2161.032055826026
 11
5886.963324096945
 21
-2161.032055826006
  0
LINE
  5
7F
100
AcDbEntity
  8
0
  6
ByLayer
 62
  256
370
   -1
100
AcDbLine
 10
32053.08256708406
 20
-4054.740938767907
 11
32053.08256708406
 21
-2161.032055825948
  0
LINE
  5
80
100
AcDbEntity
  8
0
  6
ByLayer
 62
  256
370
   -1
100
AcDbLine
 10
12389.83003659495
 20
-4261.032055825948
 11
12089.83003659495
 21
-4261.032055825948
  0
LINE
  5
81
100
AcDbEntity
  8
0
  6
ByLayer
 62
  256
370
   -1
100
AcDbLine
 10
29371.76254344531
 20
-6661.032055825947
 11
29371.76254344531
 21
-6261.032055825926
  0
LINE
  5
82
100
AcDbEntity
  8
0
  6
ByLayer
 62
  256
370
   -1
100
AcDbLine
 10
17570.20922782765
 20
-4261.032055825946
 11
17439.48726591497
 21
-4054.740938767909
  0
LINE
  5
83
100
AcDbEntity
  8
0
  6
ByLayer
 62
  256
370
   -1
100
AcDbLine
 10
21779.24313683704
 20
-5845.346381465865
 11
20965.40252772842
 21
-4561.032055825945
  0
LINE
  5
84
100
AcDbEntity
  8
0
  6
ByLayer
 62
  256
370
   -1
100
AcDbLine
 10
22079.24313683704
 20
-6661.032055825947
 11
21779.24313683706
 21
-6661.032055825947
  0
LINE
  5
85
100
AcDbEntity
  8
0
  6
ByLayer
 62
  256
370
   -1
100
AcDbLine
 10
5886.963324096945
 20
-4561.032055826005
 11
5886.963324096945
 21
-6661.032055825947
  0
LINE
  5
86
100
AcDbEntity
  8
0
  6
ByLayer
 62
  256
370
   -1
100
AcDbLine
 10
12089.83003659495
 20
-4087.599679117995
 11
10889.83003659495
 21
-2193.890796176024
  0
LINE
  5
87
100
AcDbEntity
  8
0
  6
ByLayer
 62
  256
370
   -1
100
AcDbLine
 10
21779.24313683706
 20
-6261.032055825919
 11
21779.24313683704
 21
-5845.346381465865
  0
LINE
  5
88
100
AcDbEntity
  8
0
  6
ByLayer
 62
  256
370
   -1
100
AcDbLine
 10
29671.76254344534
 20
-6661.032055825947
 11
29371.76254344531
 21
-6661.032055825947
  0
LINE
  5
89
100
AcDbEntity
  8
0
  6
ByLayer
 62
  256
370
   -1
100
AcDbLine
 10
29671.76254344531
 20
-2161.032055825944
 11
29671.76254344531
 21
-4261.032055825948
  0
LINE
  5
8A
100
AcDbEntity
  8
0
  6
ByLayer
 62
  256
370
   -1
100
AcDbLine
 10
3274.660476304614
 20
-4724.953156783812
 11
3284.323200899731
 21
-4561.032055825942
  0
LINE
  5
8B
100
AcDbEntity
  8
0
  6
ByLayer
 62
  256
370
   -1
100
AcDbLine
 10
28583.56037530918
 20
-4261.032055825946
 11
29371.76254344531
 21
-4261.032055825948
  0
LINE
  5
8C
100
AcDbEntity
  8
0
  6
ByLayer
 62
  256
370
   -1
100
AcDbLine
 10
18502.87168224226
 20
-4261.032055825948
 11
17570.20922782765
 21
-4261.032055825946
  0
LINE
  5
8D
100
AcDbEntity
  8
0
  6
ByLayer
 62
  256
370
   -1
100
AcDbLine
 10
5354.569559540108
 20
-4561.032055826005
 11
5886.963324096945
 21
-4561.032055826005
  0
LINE
  5
8E
100
AcDbEntity
  8
0
  6
ByLayer
 62
  256
370
   -1
100
AcDbLine
 10
12389.83003659495
 20
-2161.032055825945
 11
12389.83003659495
 21
-4261.032055825948
  0
LINE
  5
8F
100
AcDbEntity
  8
0
  6
ByLayer
 62
  256
370
   -1
100
AcDbLine
 10
3631.372601424853
 20
-6261.032055825868
 11
3274.660476304614
 21
-4724.953156783812
  0
LINE
  5
90
100
AcDbEntity
  8
0
  6
ByLayer
 62
  256
370
   -1
100
AcDbLine
 10
12089.83003659495
 20
-4087.599679117995
 11
12089.83003659495
 21
-2161.032055825947
  0
LINE
  5
91
100
AcDbEntity
  8
0
  6
ByLayer
 62
  256
370
   -1
100
AcDbLine
 10
12089.83003659495
 20
-4261.032055825948
 11
12089.83003659498
 21
-6661.032055825947
  0
LINE
  5
92
100
AcDbEntity
  8
0
  6
ByLayer
 62
  256
370
   -1
100
AcDbLine
 10
27252.8384133965
 20
-2161.032055825952
 11
28171.76254344531
 21
-2161.032055825949
  0
LINE
  5
93
100
AcDbEntity
  8
0
  6
ByLayer
 62
  256
370
   -1
100
AcDbLine
 10
3931.372601424854
 20
-6661.032055825947
 11
3631.372601424853
 21
-6661.032055825947
  0
LINE
  5
94
100
AcDbEntity
  8
0
  6
ByLayer
 62
  256
370
   -1
100
AcDbLine
 10
3631.372601424853
 20
-6661.032055825947
 11
3631.372601424853
 21
-6261.032055825868
  0
LINE
  5
95
100
AcDbEntity
  8
0
  6
ByLayer
 62
  256
370
   -1
100
AcDbLine
 10
29371.76254344531
 20
-4261.032055825948
 11
29371.76254344531
 21
-2161.032055825945
  0
LINE
  5
96
100
AcDbEntity
  8
0
  6
ByLayer
 62
  256
370
   -1
100
AcDbLine
 10
29671.76254344531
 20
-4261.032055825948
 11
29371.76254344531
 21
-4261.032055825948
  0
LINE
  5
97
100
AcDbEntity
  8
0
  6
ByLayer
 62
  256
370
   -1
100
AcDbLine
 10
29371.76254344531
 20
-2161.032055825945
 11
29671.76254344531
 21
-2161.032055825944
  0
LINE
  5
98
100
AcDbEntity
  8
0
  6
ByLayer
 62
  256
370
   -1
100
AcDbLine
 10
28583.56037530918
 20
-4261.032055825946
 11
28171.76254344531
 21
-3611.177712345248
  0
LINE
  5
99
100
AcDbEntity
  8
0
  6
ByLayer
 62
  256
370
   -1
100
AcDbLine
 10
3425.796988549871
 20
-2161.032055825949
 11
3573.442455473694
 21
-2161.032055825942
  0
LINE
  5
9A
100
AcDbEntity
  8
0
  6
ByLayer
 62
  256
370
   -1
100
AcDbLine
 10
22079.24313683704
 20
-2161.032055825944
 11
22079.24313683704
 21
-4561.032055825945
  0
LINE
  5
9B
100
AcDbEntity
  8
0
  6
ByLayer
 62
  256
370
   -1
100
AcDbLine
 10
3573.442455473694
 20
-2161.032055825942
 11
3931.372601424854
 21
-2161.032055825942
  0
LINE
  5
9C
100
AcDbEntity
  8
0
  6
ByLayer
 62
  256
370
   -1
100
AcDbLine
 10
29371.76254344531
 20
-5504.886595287221
 11
28583.56037530918
 21
-4261.032055825946
  0
LINE
  5
9D
100
AcDbEntity
  8
0
  6
ByLayer
 62
  256
370
   -1
100
AcDbLine
 10
19444.57742839964
 20
-2161.03205582595
 11
20579.24313683703
 21
-2161.032055825945
  0
LINE
  5
9E
100
AcDbEntity
  8
0
  6
ByLayer
 62
  256
370
   -1
100
AcDbLine
 10
5586.963324096898
 20
-6261.032055825876
 11
5321.69477889243
 21
-5118.728819763317
  0
LINE
  5
9F
100
AcDbEntity
  8
0
  6
ByLayer
 62
  256
370
   -1
100
AcDbLine
 10
5586.963324097106
 20
-6661.032055825947
 11
5586.963324096898
 21
-6261.032055825876
  0
LINE
  5
A0
100
AcDbEntity
  8
0
  6
ByLayer
 62
  256
370
   -1
100
AcDbLine
 10
12389.83003659495
 20
-6661.032055825947
 11
12089.83003659498
 21
-6661.032055825947
  0
LINE
  5
A1
100
AcDbEntity
  8
0
  6
ByLayer
 62
  256
370
   -1
100
AcDbLine
 10
21779.24313683706
 20
-6661.032055825947
 11
21779.24313683706
 21
-6261.032055825919
  0
LINE
  5
A2
100
AcDbEntity
  8
0
  6
ByLayer
 62
  256
370
   -1
100
AcDbLine
 10
29371.76254344531
 20
-4261.032055825948
 11
29371.76254344531
 21
-5504.886595287221
  0
LINE
  5
A3
100
AcDbEntity
  8
0
  6
ByLayer
 62
  256
370
   -1
100
AcDbLine
 10
3931.372601424854
 20
-4561.032055825942
 11
3931.372601424854
 21
-6661.032055825947
  0
LINE
  5
A4
100
AcDbEntity
  8
0
  6
ByLayer
 62
  256
370
   -1
100
AcDbLine
 10
3284.323200899731
 20
-4561.032055825942
 11
3931.372601424854
 21
-4561.032055825942
  0
LINE
  5
A5
100
AcDbEntity
  8
0
  6
ByLayer
 62
  256
370
   -1
100
AcDbLine
 10
28171.76254344531
 20
-3611.177712345248
 11
28171.76254344531
 21
-2161.032055825949
  0
LINE
  5
A6
100
AcDbEntity
  8
0
  6
ByLayer
 62
  256
370
   -1
100
AcDbLine
 10
5321.69477889243
 20
-5118.728819763317
 11
5354.569559540108
 21
-4561.032055826005
  0
LINE
  5
A7
100
AcDbEntity
  8
0
  6
ByLayer
 62
  256
370
   -1
100
AcDbLine
 10
3931.372601424854
 20
-2161.032055825942
 11
3931.372601424854
 21
-4561.032055825942
  0
LINE
  5
A8
100
AcDbEntity
  8
0
  6
ByLayer
 62
  256
370
   -1
100
AcDbLine
 10
21779.24313683704
 20
-2161.032055825945
 11
22079.24313683704
 21
-2161.032055825944
  0
LINE
  5
A9
100
AcDbEntity
  8
0
  6
ByLayer
 62
  256
370
   -1
100
AcDbLine
 10
3284.323200899731
 20
-4561.032055825942
 11
3425.796988549871
 21
-2161.032055825949
  0
LINE
  5
AA
100
AcDbEntity
  8
0
  6
ByLayer
 62
  256
370
   -1
100
AcDbLine
 10
28171.76254344531
 20
-2161.032055825949
 11
29371.76254344531
 21
-2161.032055825945
  0
LINE
  5
AB
100
AcDbEntity
  8
0
  6
ByLayer
 62
  256
370
   -1
100
AcDbLine
 10
12089.83003659495
 20
-2161.032055825947
 11
12389.83003659495
 21
-2161.032055825945
  0
LINE
  5
AC
100
AcDbEntity
  8
0
  6
ByLayer
 62
  256
370
   -1
100
AcDbLine
 10
12389.83003659495
 20
-4261.032055825948
 11
12389.83003659495
 21
-6661.032055825947
  0
LINE
  5
AD
100
AcDbEntity
  8
0
  6
ByLayer
 62
  256
370
   -1
100
AcDbLine
 10
10889.83003659495
 20
-2161.032055825956
 11
12089.83003659495
 21
-2161.032055825947
  0
LINE
  5
AE
100
AcDbEntity
  8
0
  6
ByLayer
 62
  256
370
   -1
100
AcDbLine
 10
17439.48726591497
 20
-4054.740938767909
 11
17439.48726591497
 21
-2161.032055825946
  0
LINE
  5
AF
100
AcDbEntity
  8
0
  6
ByLayer
 62
  256
370
   -1
100
AcDbLine
 10
29671.76254344531
 20
-4261.032055825948
 11
29671.76254344534
 21
-6661.032055825947
  0
LINE
  5
B0
100
AcDbEntity
  8
0
  6
ByLayer
 62
  256
370
   -1
100
AcDbLine
 10
28171.76254344531
 20
-3611.177712345248
 11
27252.8384133965
 21
-2161.032055825952
  0
LINE
  5
B1
100
AcDbEntity
  8
0
  6
ByLayer
 62
  256
370
   -1
100
AcDbLine
 10
12089.83003659495
 20
-4087.599679117995
 11
12089.83003659495
 21
-4261.032055825948
  0
LINE
  5
B2
100
AcDbEntity
  8
0
  6
ByLayer
 62
  256
370
   -1
100
AcDbLine
 10
10889.83003659495
 20
-2161.032055825956
 11
10889.83003659495
 21
-2193.890796176024
  0
LINE
  5
B3
100
AcDbEntity
  8
0
  6
ByLayer
 62
  256
370
   -1
100
AcDbLine
 10
29371.76254344531
 20
-6261.032055825926
 11
29371.76254344531
 21
-5504.886595287221
  0
LINE
  5
B4
100
AcDbEntity
  8
0
  6
ByLayer
 62
  256
370
   -1
100
AcDbLine
 10
5354.569559540108
 20
-4561.032055826005
 11
5496.043347190249
 21
-2161.032055826026
  0
LINE
  5
B5
100
AcDbEntity
  8
0
  6
ByLayer
 62
  256
370
   -1
100
AcDbLine
 10
20965.40252772842
 20
-4561.032055825945
 11
21779.24313683704
 21
-4561.032055825945
  0
LINE
  5
B6
100
AcDbEntity
  8
0
  6
ByLayer
 62
  256
370
   -1
100
AcDbLine
 10
8523.017434354431
 20
-2161.032055825943
 11
8523.017434354431
 21
-4561.032055825942
  0
LINE
  5
B7
100
AcDbEntity
  8
0
  6
ByLayer
 62
  256
370
   -1
100
AcDbLine
 10
22079.24313683704
 20
-4561.032055825945
 11
22079.24313683704
 21
-6661.032055825947
  0
LINE
  5
B8
100
AcDbEntity
  8
0
  6
ByLayer
 62
  256
370
   -1
100
AcDbLine
 10
4645.864270482357
 20
-6661.032055825947
 11
4645.86427048224
 21
-6261.032055825749
  0
LINE
  5
B9
100
AcDbEntity
  8
0
  6
ByLayer
 62
  256
370
   -1
100
AcDbLine
 10
35644.52370085613
 20
-6661.032055825947
 11
35644.52370085613
 21
-4561.032055825895
  0
LINE
  5
BA
100
AcDbEntity
  8
0
  6
ByLayer
 62
  256
370
   -1
100
AcDbLine
 10
8223.017434354429
 20
-2161.032055825944
 11
8523.017434354431
 21
-2161.032055825943
  0
LINE
  5
BB
100
AcDbEntity
  8
0
  6
ByLayer
 62
  256
370
   -1
100
AcDbLine
 10
20965.40252772842
 20
-4561.032055825945
 11
20579.24313683703
 21
-3951.637498523889
  0
LINE
  5
BC
100
AcDbEntity
  8
0
  6
ByLayer
 62
  256
370
   -1
100
AcDbLine
 10
-1761.340454340514
 20
-2161.032055825942
 11
-1761.340454340514
 21
-4561.032055825942
  0
LINE
  5
BD
100
AcDbEntity
  8
0
  6
ByLayer
 62
  256
370
   -1
100
AcDbLine
 10
33968.16215502782
 20
-2161.032055825895
 11
35168.16215502782
 21
-2161.032055825895
  0
LINE
  5
BE
100
AcDbEntity
  8
0
  6
ByLayer
 62
  256
370
   -1
100
AcDbLine
 10
21779.24313683704
 20
-4561.032055825945
 11
22079.24313683704
 21
-4561.032055825945
  0
LINE
  5
BF
100
AcDbEntity
  8
0
  6
ByLayer
 62
  256
370
   -1
100
AcDbLine
 10
4356.142687941321
 20
-4561.032055825991
 11
4497.616475591461
 21
-2161.032055825987
  0
LINE
  5
C0
100
AcDbEntity
  8
0
  6
ByLayer
 62
  256
370
   -1
100
AcDbLine
 10
35644.52370085613
 20
-6661.032055825947
 11
35344.52370085613
 21
-6661.032055825947
  0
LINE
  5
C1
100
AcDbEntity
  8
0
  6
ByLayer
 62
  256
370
   -1
100
AcDbLine
 10
4497.616475591461
 20
-2161.032055825987
 11
4945.864270482265
 21
-2161.032055825977
  0
LINE
  5
C2
100
AcDbEntity
  8
0
  6
ByLayer
 62
  256
370
   -1
100
AcDbLine
 10
4945.864270482381
 20
-6661.032055825947
 11
4645.864270482357
 21
-6661.032055825947
  0
LINE
  5
C3
100
AcDbEntity
  8
0
  6
ByLayer
 62
  256
370
   -1
100
AcDbLine
 10
8523.017434354431
 20
-4561.032055825942
 11
8523.017434354431
 21
-6661.032055825947
  0
LINE
  5
C4
100
AcDbEntity
  8
0
  6
ByLayer
 62
  256
370
   -1
100
AcDbLine
 10
4334.873935319911
 20
-4921.840988273565
 11
4356.142687941321
 21
-4561.032055825991
  0
LINE
  5
C5
100
AcDbEntity
  8
0
  6
ByLayer
 62
  256
370
   -1
100
AcDbLine
 10
8523.017434354431
 20
-6661.032055825947
 11
8223.017434354429
 21
-6661.032055825947
  0
LINE
  5
C6
100
AcDbEntity
  8
0
  6
ByLayer
 62
  256
370
   -1
100
AcDbLine
 10
-2561.294435340053
 20
-4561.032055825942
 11
-2667.111820280561
 21
-4201.219830630276
  0
LINE
  5
C7
100
AcDbEntity
  8
0
  6
ByLayer
 62
  256
370
   -1
100
AcDbLine
 10
4945.864270482265
 20
-2161.032055825977
 11
4945.864270482335
 21
-4561.032055825975
  0
LINE
  5
C8
100
AcDbEntity
  8
0
  6
ByLayer
 62
  256
370
   -1
100
AcDbLine
 10
-2061.340454340514
 20
-6261.032055825943
 11
-2561.294435340053
 21
-4561.032055825942
  0
LINE
  5
C9
100
AcDbEntity
  8
0
  6
ByLayer
 62
  256
370
   -1
100
AcDbLine
 10
-2667.111820280561
 20
-2161.032055825942
 11
-1761.340454340514
 21
-2161.032055825942
  0
LINE
  5
CA
100
AcDbEntity
  8
0
  6
ByLayer
 62
  256
370
   -1
100
AcDbLine
 10
8223.017434354429
 20
-4561.032055825943
 11
8523.017434354431
 21
-4561.032055825942
  0
LINE
  5
CB
100
AcDbEntity
  8
0
  6
ByLayer
 62
  256
370
   -1
100
AcDbLine
 10
35168.16215502782
 20
-4054.740938768008
 11
33968.16215502782
 21
-2161.032055825895
  0
LINE
  5
CC
100
AcDbEntity
  8
0
  6
ByLayer
 62
  256
370
   -1
100
AcDbLine
 10
8223.017434354429
 20
-4561.032055825943
 11
8223.017434354429
 21
-2161.032055825944
  0
LINE
  5
CD
100
AcDbEntity
  8
0
  6
ByLayer
 62
  256
370
   -1
100
AcDbLine
 10
-2561.294435340053
 20
-4561.032055825942
 11
-1761.340454340514
 21
-4561.032055825942
  0
LINE
  5
CE
100
AcDbEntity
  8
0
  6
ByLayer
 62
  256
370
   -1
100
AcDbLine
 10
6791.297074088243
 20
-2161.032055825959
 11
6791.297074088243
 21
-4561.032055825958
  0
LINE
  5
CF
100
AcDbEntity
  8
0
  6
ByLayer
 62
  256
370
   -1
100
AcDbLine
 10
6457.704915165656
 20
-2161.032055825964
 11
6791.297074088243
 21
-2161.032055825959
  0
LINE
  5
D0
100
AcDbEntity
  8
0
  6
ByLayer
 62
  256
370
   -1
100
AcDbLine
 10
35344.52370085613
 20
-6261.032055825946
 11
35344.52370085613
 21
-6661.032055825947
  0
LINE
  5
D1
100
AcDbEntity
  8
0
  6
ByLayer
 62
  256
370
   -1
100
AcDbLine
 10
-1761.340454340514
 20
-4561.032055825942
 11
-1761.340454340514
 21
-6661.032055825947
  0
LINE
  5
D2
100
AcDbEntity
  8
0
  6
ByLayer
 62
  256
370
   -1
100
AcDbLine
 10
8223.017434354429
 20
-6261.032055825948
 11
8223.017434354429
 21
-4561.032055825943
  0
LINE
  5
D3
100
AcDbEntity
  8
0
  6
ByLayer
 62
  256
370
   -1
100
AcDbLine
 10
-2667.111820280561
 20
-4201.219830630276
 11
-3267.111820280563
 21
-2161.032055825942
  0
LINE
  5
D4
100
AcDbEntity
  8
0
  6
ByLayer
 62
  256
370
   -1
100
AcDbLine
 10
35344.52370085615
 20
-4333.055460388429
 11
35168.16215502782
 21
-4054.740938768008
  0
LINE
  5
D5
100
AcDbEntity
  8
0
  6
ByLayer
 62
  256
370
   -1
100
AcDbLine
 10
6491.297074088172
 20
-6261.032055826124
 11
6271.750318841543
 21
-5315.616651253073
  0
LINE
  5
D6
100
AcDbEntity
  8
0
  6
ByLayer
 62
  256
370
   -1
100
AcDbLine
 10
6491.297074088449
 20
-6661.032055825947
 11
6491.297074088172
 21
-6261.032055826124
  0
LINE
  5
D7
100
AcDbEntity
  8
0
  6
ByLayer
 62
  256
370
   -1
100
AcDbLine
 10
20579.24313683703
 20
-3951.637498523889
 11
20579.24313683703
 21
-2161.032055825945
  0
LINE
  5
D8
100
AcDbEntity
  8
0
  6
ByLayer
 62
  256
370
   -1
100
AcDbLine
 10
20579.24313683703
 20
-3951.637498523889
 11
19444.57742839964
 21
-2161.03205582595
  0
LINE
  5
D9
100
AcDbEntity
  8
0
  6
ByLayer
 62
  256
370
   -1
100
AcDbLine
 10
21779.24313683704
 20
-4561.032055825945
 11
21779.24313683704
 21
-5845.346381465865
  0
LINE
  5
DA
100
AcDbEntity
  8
0
  6
ByLayer
 62
  256
370
   -1
100
AcDbLine
 10
-2061.340454340514
 20
-6661.032055825947
 11
-2061.340454340514
 21
-6261.032055825943
  0
LINE
  5
DB
100
AcDbEntity
  8
0
  6
ByLayer
 62
  256
370
   -1
100
AcDbLine
 10
35344.52370085615
 20
-4561.032055825895
 11
35344.52370085615
 21
-4333.055460388429
  0
LINE
  5
DC
100
AcDbEntity
  8
0
  6
ByLayer
 62
  256
370
   -1
100
AcDbLine
 10
-2667.111820280561
 20
-4201.219830630276
 11
-2667.111820280561
 21
-2161.032055825942
  0
LINE
  5
DD
100
AcDbEntity
  8
0
  6
ByLayer
 62
  256
370
   -1
100
AcDbLine
 10
35168.16215502782
 20
-2161.032055825895
 11
35644.52370085613
 21
-2161.032055825931
  0
LINE
  5
DE
100
AcDbEntity
  8
0
  6
ByLayer
 62
  256
370
   -1
100
AcDbLine
 10
4645.86427048224
 20
-6261.032055825749
 11
4334.873935319911
 21
-4921.840988273565
  0
LINE
  5
DF
100
AcDbEntity
  8
0
  6
ByLayer
 62
  256
370
   -1
100
AcDbLine
 10
6791.297074088243
 20
-6661.032055825945
 11
6491.297074088449
 21
-6661.032055825947
  0
LINE
  5
E0
100
AcDbEntity
  8
0
  6
ByLayer
 62
  256
370
   -1
100
AcDbLine
 10
21779.24313683704
 20
-4561.032055825945
 11
21779.24313683704
 21
-2161.032055825945
  0
LINE
  5
E1
100
AcDbEntity
  8
0
  6
ByLayer
 62
  256
370
   -1
100
AcDbLine
 10
4945.864270482335
 20
-4561.032055825975
 11
4945.864270482381
 21
-6661.032055825947
  0
LINE
  5
E2
100
AcDbEntity
  8
0
  6
ByLayer
 62
  256
370
   -1
100
AcDbLine
 10
-3267.111820280563
 20
-2161.032055825942
 11
-2667.111820280561
 21
-2161.032055825942
  0
LINE
  5
E3
100
AcDbEntity
  8
0
  6
ByLayer
 62
  256
370
   -1
100
AcDbLine
 10
4356.142687941321
 20
-4561.032055825991
 11
4945.864270482335
 21
-4561.032055825975
  0
LINE
  5
E4
100
AcDbEntity
  8
0
  6
ByLayer
 62
  256
370
   -1
100
AcDbLine
 10
8223.017434354429
 20
-6661.032055825947
 11
8223.017434354429
 21
-6261.032055825948
  0
LINE
  5
E5
100
AcDbEntity
  8
0
  6
ByLayer
 62
  256
370
   -1
100
AcDbLine
 10
6271.750318841543
 20
-5315.616651253073
 11
6316.231127515515
 21
-4561.03205582596
  0
LINE
  5
E6
100
AcDbEntity
  8
0
  6
ByLayer
 62
  256
370
   -1
100
AcDbLine
 10
35344.52370085613
 20
-6261.032055825946
 11
35344.52370085615
 21
-4561.032055825895
  0
LINE
  5
E7
100
AcDbEntity
  8
0
  6
ByLayer
 62
  256
370
   -1
100
AcDbLine
 10
20579.24313683703
 20
-2161.032055825945
 11
21779.24313683704
 21
-2161.032055825945
  0
LINE
  5
E8
100
AcDbEntity
  8
0
  6
ByLayer
 62
  256
370
   -1
100
AcDbLine
 10
35168.16215502782
 20
-4054.740938768008
 11
35168.16215502782
 21
-2161.032055825895
  0
LINE
  5
E9
100
AcDbEntity
  8
0
  6
ByLayer
 62
  256
370
   -1
100
AcDbLine
 10
35344.52370085615
 20
-4561.032055825895
 11
35644.52370085613
 21
-4561.032055825895
  0
LINE
  5
EA
100
AcDbEntity
  8
0
  6
ByLayer
 62
  256
370
   -1
100
AcDbLine
 10
-1761.340454340514
 20
-6661.032055825947
 11
-2061.340454340514
 21
-6661.032055825947
  0
LINE
  5
EB
100
AcDbEntity
  8
0
  6
ByLayer
 62
  256
370
   -1
100
AcDbLine
 10
-12505.57138243257
 20
-4561.032055825943
 11
-12205.57138243256
 21
-4561.032055825943
  0
LINE
  5
EC
100
AcDbEntity
  8
0
  6
ByLayer
 62
  256
370
   -1
100
AcDbLine
 10
9372.894522510616
 20
-2161.032055825961
 11
10052.18002378042
 21
-2161.032055825952
  0
LINE
  5
ED
100
AcDbEntity
  8
0
  6
ByLayer
 62
  256
370
   -1
100
AcDbLine
 10
2555.347775696502
 20
-4561.032055825946
 11
2555.347775696502
 21
-6661.032055825947
  0
LINE
  5
EE
100
AcDbEntity
  8
0
  6
ByLayer
 62
  256
370
   -1
100
AcDbLine
 10
15273.74175883073
 20
-6661.032055825947
 11
14973.74175883073
 21
-6661.032055825947
  0
LINE
  5
EF
100
AcDbEntity
  8
0
  6
ByLayer
 62
  256
370
   -1
100
AcDbLine
 10
-10246.04656021194
 20
-6661.032055825947
 11
-10246.04656021194
 21
-6261.032055825946
  0
LINE
  5
F0
100
AcDbEntity
  8
0
  6
ByLayer
 62
  256
370
   -1
100
AcDbLine
 10
-14430.167620275
 20
-6661.032055825947
 11
-14130.167620275
 21
-6661.032055825947
  0
LINE
  5
F1
100
AcDbEntity
  8
0
  6
ByLayer
 62
  256
370
   -1
100
AcDbLine
 10
-10746.00054121148
 20
-4561.032055825942
 11
-10851.81792615199
 21
-4201.219830630278
  0
LINE
  5
F2
100
AcDbEntity
  8
0
  6
ByLayer
 62
  256
370
   -1
100
AcDbLine
 10
-10851.81792615199
 20
-4201.219830630278
 11
-11451.81792615199
 21
-2161.032055825944
  0
LINE
  5
F3
100
AcDbEntity
  8
0
  6
ByLayer
 62
  256
370
   -1
100
AcDbLine
 10
-14130.167620275
 20
-4261.032055825948
 11
-14130.167620275
 21
-6661.032055825947
  0
LINE
  5
F4
100
AcDbEntity
  8
0
  6
ByLayer
 62
  256
370
   -1
100
AcDbLine
 10
-14130.167620275
 20
-4261.032055825948
 11
-14430.167620275
 21
-4261.032055825948
  0
LINE
  5
F5
100
AcDbEntity
  8
0
  6
ByLayer
 62
  256
370
   -1
100
AcDbLine
 10
2087.933230884205
 20
-4561.032055825946
 11
2555.347775696502
 21
-4561.032055825946
  0
LINE
  5
F6
100
AcDbEntity
  8
0
  6
ByLayer
 62
  256
370
   -1
100
AcDbLine
 10
6316.231127515515
 20
-4561.03205582596
 11
6457.704915165656
 21
-2161.032055825964
  0
LINE
  5
F7
100
AcDbEntity
  8
0
  6
ByLayer
 62
  256
370
   -1
100
AcDbLine
 10
14973.74175883073
 20
-4673.515246567314
 11
14712.36059652627
 21
-4261.032055825948
  0
LINE
  5
F8
100
AcDbEntity
  8
0
  6
ByLayer
 62
  256
370
   -1
100
AcDbLine
 10
-14430.167620275
 20
-4261.032055825948
 11
-14430.167620275
 21
-2161.032055825942
  0
LINE
  5
F9
100
AcDbEntity
  8
0
  6
ByLayer
 62
  256
370
   -1
100
AcDbLine
 10
15273.74175883073
 20
-4261.032055825948
 11
14712.36059652627
 21
-4261.032055825948
  0
LINE
  5
FA
100
AcDbEntity
  8
0
  6
ByLayer
 62
  256
370
   -1
100
AcDbLine
 10
2255.347775696499
 20
-6261.032055825942
 11
2087.933230884205
 21
-4561.032055825946
  0
LINE
  5
FB
100
AcDbEntity
  8
0
  6
ByLayer
 62
  256
370
   -1
100
AcDbLine
 10
-12505.57138243257
 20
-6261.032055825946
 11
-12505.57138243257
 21
-4561.032055825943
  0
LINE
  5
FC
100
AcDbEntity
  8
0
  6
ByLayer
 62
  256
370
   -1
100
AcDbLine
 10
13381.63863461359
 20
-2161.032055825952
 11
14581.6386346136
 21
-2161.032055825947
  0
LINE
  5
FD
100
AcDbEntity
  8
0
  6
ByLayer
 62
  256
370
   -1
100
AcDbLine
 10
-12205.57138243256
 20
-2161.032055825943
 11
-12205.57138243256
 21
-4561.032055825943
  0
LINE
  5
FE
100
AcDbEntity
  8
0
  6
ByLayer
 62
  256
370
   -1
100
AcDbLine
 10
15273.74175883073
 20
-2161.032055825945
 11
15273.74175883073
 21
-4261.032055825948
  0
LINE
  5
FF
100
AcDbEntity
  8
0
  6
ByLayer
 62
  256
370
   -1
100
AcDbLine
 10
14581.6386346136
 20
-4054.740938767912
 11
14581.6386346136
 21
-2161.032055825947
  0
LINE
  5
100
100
AcDbEntity
  8
0
  6
ByLayer
 62
  256
370
   -1
100
AcDbLine
 10
-14430.167620275
 20
-6261.032055825947
 11
-14430.167620275
 21
-6661.032055825947
  0
LINE
  5
101
100
AcDbEntity
  8
0
  6
ByLayer
 62
  256
370
   -1
100
AcDbLine
 10
15273.74175883073
 20
-4261.032055825948
 11
15273.74175883073
 21
-6661.032055825947
  0
LINE
  5
102
100
AcDbEntity
  8
0
  6
ByLayer
 62
  256
370
   -1
100
AcDbLine
 10
6791.297074088243
 20
-4561.032055825958
 11
6791.297074088243
 21
-6661.032055825945
  0
LINE
  5
103
100
AcDbEntity
  8
0
  6
ByLayer
 62
  256
370
   -1
100
AcDbLine
 10
-14430.167620275
 20
-6261.032055825947
 11
-14430.167620275
 21
-4261.032055825948
  0
LINE
  5
104
100
AcDbEntity
  8
0
  6
ByLayer
 62
  256
370
   -1
100
AcDbLine
 10
-10851.81792615199
 20
-4201.219830630278
 11
-10851.81792615199
 21
-2161.032055825942
  0
LINE
  5
105
100
AcDbEntity
  8
0
  6
ByLayer
 62
  256
370
   -1
100
AcDbLine
 10
-13532.23335868746
 20
-6261.032055825947
 11
-13532.23335868746
 21
-4261.032055825948
  0
LINE
  5
106
100
AcDbEntity
  8
0
  6
ByLayer
 62
  256
370
   -1
100
AcDbLine
 10
-14430.167620275
 20
-2161.032055825942
 11
-14130.167620275
 21
-2161.032055825942
  0
LINE
  5
107
100
AcDbEntity
  8
0
  6
ByLayer
 62
  256
370
   -1
100
AcDbLine
 10
2087.933230884205
 20
-4561.032055825946
 11
1851.583285266861
 21
-2161.032055825948
  0
LINE
  5
108
100
AcDbEntity
  8
0
  6
ByLayer
 62
  256
370
   -1
100
AcDbLine
 10
-9946.04656021194
 20
-4561.032055825942
 11
-9946.04656021194
 21
-6661.032055825947
  0
LINE
  5
109
100
AcDbEntity
  8
0
  6
ByLayer
 62
  256
370
   -1
100
AcDbLine
 10
-12505.57138243257
 20
-6661.032055825947
 11
-12505.57138243257
 21
-6261.032055825946
  0
LINE
  5
10A
100
AcDbEntity
  8
0
  6
ByLayer
 62
  256
370
   -1
100
AcDbLine
 10
-10246.04656021194
 20
-6261.032055825946
 11
-10746.00054121148
 21
-4561.032055825942
  0
LINE
  5
10B
100
AcDbEntity
  8
0
  6
ByLayer
 62
  256
370
   -1
100
AcDbLine
 10
-11451.81792615199
 20
-2161.032055825944
 11
-10852.22002033266
 21
-2161.032055825942
  0
LINE
  5
10C
100
AcDbEntity
  8
0
  6
ByLayer
 62
  256
370
   -1
100
AcDbLine
 10
6316.231127515515
 20
-4561.03205582596
 11
6791.297074088243
 21
-4561.032055825958
  0
LINE
  5
10D
100
AcDbEntity
  8
0
  6
ByLayer
 62
  256
370
   -1
100
AcDbLine
 10
1851.583285266861
 20
-2161.032055825948
 11
2555.347775696502
 21
-2161.032055825947
  0
LINE
  5
10E
100
AcDbEntity
  8
0
  6
ByLayer
 62
  256
370
   -1
100
AcDbLine
 10
-12505.57138243257
 20
-2653.967981140858
 11
-12650.53919316132
 21
-2161.032055825944
  0
LINE
  5
10F
100
AcDbEntity
  8
0
  6
ByLayer
 62
  256
370
   -1
100
AcDbLine
 10
-12205.57138243256
 20
-4561.032055825943
 11
-12205.57138243256
 21
-6661.032055825947
  0
LINE
  5
110
100
AcDbEntity
  8
0
  6
ByLayer
 62
  256
370
   -1
100
AcDbLine
 10
-12505.57138243257
 20
-4561.032055825943
 11
-12505.57138243257
 21
-2653.967981140858
  0
LINE
  5
111
100
AcDbEntity
  8
0
  6
ByLayer
 62
  256
370
   -1
100
AcDbLine
 10
2555.347775696502
 20
-2161.032055825947
 11
2555.347775696502
 21
-4561.032055825946
  0
LINE
  5
112
100
AcDbEntity
  8
0
  6
ByLayer
 62
  256
370
   -1
100
AcDbLine
 10
-12650.53919316132
 20
-2161.032055825944
 11
-12205.57138243256
 21
-2161.032055825943
  0
LINE
  5
113
100
AcDbEntity
  8
0
  6
ByLayer
 62
  256
370
   -1
100
AcDbLine
 10
-9946.04656021194
 20
-2161.032055825942
 11
-9946.04656021194
 21
-4561.032055825942
  0
LINE
  5
114
100
AcDbEntity
  8
0
  6
ByLayer
 62
  256
370
   -1
100
AcDbLine
 10
10052.18002378042
 20
-2161.032055825952
 11
10052.18002378044
 21
-4561.032055825953
  0
LINE
  5
115
100
AcDbEntity
  8
0
  6
ByLayer
 62
  256
370
   -1
100
AcDbLine
 10
-10852.22002033266
 20
-2161.032055825942
 11
-10851.81792615199
 21
-2161.032055825942
  0
LINE
  5
116
100
AcDbEntity
  8
0
  6
ByLayer
 62
  256
370
   -1
100
AcDbLine
 10
14581.6386346136
 20
-4054.740938767912
 11
13381.63863461359
 21
-2161.032055825952
  0
LINE
  5
117
100
AcDbEntity
  8
0
  6
ByLayer
 62
  256
370
   -1
100
AcDbLine
 10
-10851.81792615199
 20
-2161.032055825942
 11
-9946.04656021194
 21
-2161.032055825942
  0
LINE
  5
118
100
AcDbEntity
  8
0
  6
ByLayer
 62
  256
370
   -1
100
AcDbLine
 10
-10746.00054121148
 20
-4561.032055825942
 11
-9946.04656021194
 21
-4561.032055825942
  0
LINE
  5
119
100
AcDbEntity
  8
0
  6
ByLayer
 62
  256
370
   -1
100
AcDbLine
 10
14973.74175883073
 20
-4673.515246567314
 11
14973.74175883073
 21
-6661.032055825947
  0
LINE
  5
11A
100
AcDbEntity
  8
0
  6
ByLayer
 62
  256
370
   -1
100
AcDbLine
 10
-13232.23335868746
 20
-6661.032055825947
 11
-13532.23335868746
 21
-6661.032055825947
  0
LINE
  5
11B
100
AcDbEntity
  8
0
  6
ByLayer
 62
  256
370
   -1
100
AcDbLine
 10
-14130.167620275
 20
-2161.032055825942
 11
-14130.167620275
 21
-4261.032055825948
  0
LINE
  5
11C
100
AcDbEntity
  8
0
  6
ByLayer
 62
  256
370
   -1
100
AcDbLine
 10
-13532.23335868746
 20
-2161.032055825942
 11
-13232.23335868746
 21
-2161.032055825942
  0
LINE
  5
11D
100
AcDbEntity
  8
0
  6
ByLayer
 62
  256
370
   -1
100
AcDbLine
 10
-9946.04656021194
 20
-6661.032055825947
 11
-10246.04656021194
 21
-6661.032055825947
  0
LINE
  5
11E
100
AcDbEntity
  8
0
  6
ByLayer
 62
  256
370
   -1
100
AcDbLine
 10
2255.347775696524
 20
-6661.032055825947
 11
2255.347775696499
 21
-6261.032055825942
  0
LINE
  5
11F
100
AcDbEntity
  8
0
  6
ByLayer
 62
  256
370
   -1
100
AcDbLine
 10
2555.347775696502
 20
-6661.032055825947
 11
2255.347775696524
 21
-6661.032055825947
  0
LINE
  5
120
100
AcDbEntity
  8
0
  6
ByLayer
 62
  256
370
   -1
100
AcDbLine
 10
14581.6386346136
 20
-2161.032055825947
 11
15273.74175883073
 21
-2161.032055825945
  0
LINE
  5
121
100
AcDbEntity
  8
0
  6
ByLayer
 62
  256
370
   -1
100
AcDbLine
 10
35644.52370085613
 20
-4561.032055825895
 11
35644.52370085613
 21
-2161.032055825931
  0
LINE
  5
122
100
AcDbEntity
  8
0
  6
ByLayer
 62
  256
370
   -1
100
AcDbLine
 10
-13232.23335868746
 20
-2161.032055825942
 11
-13232.23335868746
 21
-4261.032055825948
  0
LINE
  5
123
100
AcDbEntity
  8
0
  6
ByLayer
 62
  256
370
   -1
100
AcDbLine
 10
-12205.57138243256
 20
-6661.032055825947
 11
-12505.57138243257
 21
-6661.032055825947
  0
LINE
  5
124
100
AcDbEntity
  8
0
  6
ByLayer
 62
  256
370
   -1
100
AcDbLine
 10
-13532.23335868746
 20
-6661.032055825947
 11
-13532.23335868746
 21
-6261.032055825947
  0
LINE
  5
125
100
AcDbEntity
  8
0
  6
ByLayer
 62
  256
370
   -1
100
AcDbLine
 10
14712.36059652627
 20
-4261.032055825948
 11
14581.6386346136
 21
-4054.740938767912
  0
LINE
  5
126
100
AcDbEntity
  8
0
  6
ByLayer
 62
  256
370
   -1
100
AcDbLine
 10
9752.180023780416
 20
-2759.578991597394
 11
9372.894522510616
 21
-2161.032055825961
  0
LINE
  5
127
100
AcDbEntity
  8
0
  6
ByLayer
 62
  256
370
   -1
100
AcDbLine
 10
7762.028369732797
 20
-6661.032055825947
 11
7462.028369733096
 21
-6661.032055825947
  0
LINE
  5
128
100
AcDbEntity
  8
0
  6
ByLayer
 62
  256
370
   -1
100
AcDbLine
 10
7462.028369733096
 20
-6661.032055825947
 11
7462.028369732703
 21
-6261.032055826133
  0
LINE
  5
129
100
AcDbEntity
  8
0
  6
ByLayer
 62
  256
370
   -1
100
AcDbLine
 10
-15062.0183974433
 20
-2161.032055825942
 11
-15062.0183974433
 21
-4261.032055825948
  0
LINE
  5
12A
100
AcDbEntity
  8
0
  6
ByLayer
 62
  256
370
   -1
100
AcDbLine
 10
-15362.0183974433
 20
-2161.032055825942
 11
-15062.0183974433
 21
-2161.032055825942
  0
LINE
  5
12B
100
AcDbEntity
  8
0
  6
ByLayer
 62
  256
370
   -1
100
AcDbLine
 10
7462.028369732703
 20
-6261.032055826133
 11
7288.20340444396
 21
-5512.504482742826
  0
LINE
  5
12C
100
AcDbEntity
  8
0
  6
ByLayer
 62
  256
370
   -1
100
AcDbLine
 10
-6112.53013201706
 20
-6661.032055825947
 11
-6112.53013201706
 21
-4561.032055825942
  0
LINE
  5
12D
100
AcDbEntity
  8
0
  6
ByLayer
 62
  256
370
   -1
100
AcDbLine
 10
-4470.037120968251
 20
-2161.032055825942
 11
-3853.202545331831
 21
-2161.032055825942
  0
LINE
  5
12E
100
AcDbEntity
  8
0
  6
ByLayer
 62
  256
370
   -1
100
AcDbLine
 10
7762.028369732797
 20
-2161.032055825941
 11
7762.028369732797
 21
-2572.524707264262
  0
LINE
  5
12F
100
AcDbEntity
  8
0
  6
ByLayer
 62
  256
370
   -1
100
AcDbLine
 10
-752.8357297603088
 20
-6661.032055825947
 11
-752.8357297603316
 21
-6261.03205582595
  0
LINE
  5
130
100
AcDbEntity
  8
0
  6
ByLayer
 62
  256
370
   -1
100
AcDbLine
 10
-15362.0183974433
 20
-6261.032055825947
 11
-15362.0183974433
 21
-6661.032055825947
  0
LINE
  5
131
100
AcDbEntity
  8
0
  6
ByLayer
 62
  256
370
   -1
100
AcDbLine
 10
7762.028369732797
 20
-4561.032055825942
 11
7762.028369732797
 21
-6661.032055825947
  0
LINE
  5
132
100
AcDbEntity
  8
0
  6
ByLayer
 62
  256
370
   -1
100
AcDbLine
 10
-13532.23335868746
 20
-4261.032055825948
 11
-13532.23335868746
 21
-2161.032055825942
  0
LINE
  5
133
100
AcDbEntity
  8
0
  6
ByLayer
 62
  256
370
   -1
100
AcDbLine
 10
7288.20340444396
 20
-5512.504482742826
 11
7344.290241144224
 21
-4561.032055825942
  0
LINE
  5
134
100
AcDbEntity
  8
0
  6
ByLayer
 62
  256
370
   -1
100
AcDbLine
 10
7762.028369732797
 20
-2572.524707264262
 11
7762.028369732797
 21
-4561.032055825942
  0
LINE
  5
135
100
AcDbEntity
  8
0
  6
ByLayer
 62
  256
370
   -1
100
AcDbLine
 10
9752.180023780416
 20
-4561.032055825955
 11
9752.180023780416
 21
-2759.578991597394
  0
LINE
  5
136
100
AcDbEntity
  8
0
  6
ByLayer
 62
  256
370
   -1
100
AcDbLine
 10
9752.180023780416
 20
-6661.032055825947
 11
9752.180023780416
 21
-6261.032055825947
  0
LINE
  5
137
100
AcDbEntity
  8
0
  6
ByLayer
 62
  256
370
   -1
100
AcDbLine
 10
-7259.26396227162
 20
-2161.032055825942
 11
-7018.301497957111
 21
-2161.032055825941
  0
LINE
  5
138
100
AcDbEntity
  8
0
  6
ByLayer
 62
  256
370
   -1
100
AcDbLine
 10
9752.180023780416
 20
-4561.032055825955
 11
10052.18002378044
 21
-4561.032055825953
  0
LINE
  5
139
100
AcDbEntity
  8
0
  6
ByLayer
 62
  256
370
   -1
100
AcDbLine
 10
25696.45733068016
 20
-6661.032055825947
 11
25396.45733068016
 21
-6661.032055825947
  0
LINE
  5
13A
100
AcDbEntity
  8
0
  6
ByLayer
 62
  256
370
   -1
100
AcDbLine
 10
-452.8357297603543
 20
-6661.032055825947
 11
-752.8357297603088
 21
-6661.032055825947
  0
LINE
  5
13B
100
AcDbEntity
  8
0
  6
ByLayer
 62
  256
370
   -1
100
AcDbLine
 10
25696.45733068016
 20
-2161.032055825943
 11
25696.45733068016
 21
-4261.032055825948
  0
LINE
  5
13C
100
AcDbEntity
  8
0
  6
ByLayer
 62
  256
370
   -1
100
AcDbLine
 10
-6912.484113016601
 20
-4561.032055825942
 11
-7018.301497957111
 21
-4201.219830630276
  0
LINE
  5
13D
100
AcDbEntity
  8
0
  6
ByLayer
 62
  256
370
   -1
100
AcDbLine
 10
-15362.0183974433
 20
-6661.032055825947
 11
-15062.0183974433
 21
-6661.032055825947
  0
LINE
  5
13E
100
AcDbEntity
  8
0
  6
ByLayer
 62
  256
370
   -1
100
AcDbLine
 10
7485.764028794364
 20
-2161.032055825941
 11
7762.028369732797
 21
-2161.032055825941
  0
LINE
  5
13F
100
AcDbEntity
  8
0
  6
ByLayer
 62
  256
370
   -1
100
AcDbLine
 10
-920.2502745726279
 20
-4561.032055825946
 11
-452.8357297603543
 21
-4561.032055825946
  0
LINE
  5
140
100
AcDbEntity
  8
0
  6
ByLayer
 62
  256
370
   -1
100
AcDbLine
 10
-452.8357297603543
 20
-4561.032055825946
 11
-452.8357297603543
 21
-6661.032055825947
  0
LINE
  5
141
100
AcDbEntity
  8
0
  6
ByLayer
 62
  256
370
   -1
100
AcDbLine
 10
22906.2519085211
 20
-2161.032055825946
 11
23596.45733068018
 21
-2161.032055825945
  0
LINE
  5
142
100
AcDbEntity
  8
0
  6
ByLayer
 62
  256
370
   -1
100
AcDbLine
 10
-13232.23335868746
 20
-4261.032055825948
 11
-13232.23335868746
 21
-6661.032055825947
  0
LINE
  5
143
100
AcDbEntity
  8
0
  6
ByLayer
 62
  256
370
   -1
100
AcDbLine
 10
-15062.0183974433
 20
-4261.032055825948
 11
-15362.0183974433
 21
-4261.032055825948
  0
LINE
  5
144
100
AcDbEntity
  8
0
  6
ByLayer
 62
  256
370
   -1
100
AcDbLine
 10
7344.290241144224
 20
-4561.032055825942
 11
7485.764028794364
 21
-2161.032055825941
  0
LINE
  5
145
100
AcDbEntity
  8
0
  6
ByLayer
 62
  256
370
   -1
100
AcDbLine
 10
-6412.53013201706
 20
-6261.032055825945
 11
-6912.484113016601
 21
-4561.032055825942
  0
LINE
  5
146
100
AcDbEntity
  8
0
  6
ByLayer
 62
  256
370
   -1
100
AcDbLine
 10
-6412.53013201706
 20
-6661.032055825947
 11
-6412.53013201706
 21
-6261.032055825945
  0
LINE
  5
147
100
AcDbEntity
  8
0
  6
ByLayer
 62
  256
370
   -1
100
AcDbLine
 10
-6112.53013201706
 20
-4561.032055825942
 11
-6112.53013201706
 21
-2161.032055825942
  0
LINE
  5
148
100
AcDbEntity
  8
0
  6
ByLayer
 62
  256
370
   -1
100
AcDbLine
 10
-15362.0183974433
 20
-6261.032055825947
 11
-15362.0183974433
 21
-4261.032055825948
  0
LINE
  5
149
100
AcDbEntity
  8
0
  6
ByLayer
 62
  256
370
   -1
100
AcDbLine
 10
-15362.0183974433
 20
-4261.032055825948
 11
-15362.0183974433
 21
-2161.032055825942
  0
LINE
  5
14A
100
AcDbEntity
  8
0
  6
ByLayer
 62
  256
370
   -1
100
AcDbLine
 10
-7018.301497957111
 20
-2161.032055825941
 11
-6112.53013201706
 21
-2161.032055825942
  0
LINE
  5
14B
100
AcDbEntity
  8
0
  6
ByLayer
 62
  256
370
   -1
100
AcDbLine
 10
-7618.301497957111
 20
-2161.032055825941
 11
-7259.26396227162
 21
-2161.032055825942
  0
LINE
  5
14C
100
AcDbEntity
  8
0
  6
ByLayer
 62
  256
370
   -1
100
AcDbLine
 10
-13232.23335868746
 20
-4261.032055825948
 11
-13532.23335868746
 21
-4261.032055825948
  0
LINE
  5
14D
100
AcDbEntity
  8
0
  6
ByLayer
 62
  256
370
   -1
100
AcDbLine
 10
-15062.0183974433
 20
-4261.032055825948
 11
-15062.0183974433
 21
-6661.032055825947
  0
LINE
  5
14E
100
AcDbEntity
  8
0
  6
ByLayer
 62
  256
370
   -1
100
AcDbLine
 10
-752.8357297603316
 20
-6261.03205582595
 11
-920.2502745726279
 21
-4561.032055825946
  0
LINE
  5
14F
100
AcDbEntity
  8
0
  6
ByLayer
 62
  256
370
   -1
100
AcDbLine
 10
7344.290241144224
 20
-4561.032055825942
 11
7762.028369732797
 21
-4561.032055825942
  0
LINE
  5
150
100
AcDbEntity
  8
0
  6
ByLayer
 62
  256
370
   -1
100
AcDbLine
 10
-6112.53013201706
 20
-6661.032055825947
 11
-6412.53013201706
 21
-6661.032055825947
  0
LINE
  5
151
100
AcDbEntity
  8
0
  6
ByLayer
 62
  256
370
   -1
100
AcDbLine
 10
-3853.202545331831
 20
-2161.032055825942
 11
-3853.202545331831
 21
-4561.032055825941
  0
LINE
  5
152
100
AcDbEntity
  8
0
  6
ByLayer
 62
  256
370
   -1
100
AcDbLine
 10
10052.18002378046
 20
-6661.032055825947
 11
9752.180023780416
 21
-6661.032055825947
  0
LINE
  5
153
100
AcDbEntity
  8
0
  6
ByLayer
 62
  256
370
   -1
100
AcDbLine
 10
-7018.301497957111
 20
-4201.219830630276
 11
-7018.301497957111
 21
-2161.032055825941
  0
LINE
  5
154
100
AcDbEntity
  8
0
  6
ByLayer
 62
  256
370
   -1
100
AcDbLine
 10
-6912.484113016601
 20
-4561.032055825942
 11
-6112.53013201706
 21
-4561.032055825942
  0
LINE
  5
155
100
AcDbEntity
  8
0
  6
ByLayer
 62
  256
370
   -1
100
AcDbLine
 10
-452.8357297603543
 20
-2161.032055825947
 11
-452.8357297603543
 21
-4561.032055825946
  0
LINE
  5
156
100
AcDbEntity
  8
0
  6
ByLayer
 62
  256
370
   -1
100
AcDbLine
 10
-1156.600220189972
 20
-2161.032055825947
 11
-452.8357297603543
 21
-2161.032055825947
  0
LINE
  5
157
100
AcDbEntity
  8
0
  6
ByLayer
 62
  256
370
   -1
100
AcDbLine
 10
25396.45733068016
 20
-6090.802162736679
 11
24796.45733068018
 21
-5143.947721265725
  0
LINE
  5
158
100
AcDbEntity
  8
0
  6
ByLayer
 62
  256
370
   -1
100
AcDbLine
 10
25396.45733068016
 20
-6661.032055825947
 11
25396.45733068016
 21
-6261.032055825916
  0
LINE
  5
159
100
AcDbEntity
  8
0
  6
ByLayer
 62
  256
370
   -1
100
AcDbLine
 10
10052.18002378044
 20
-4561.032055825953
 11
10052.18002378046
 21
-6661.032055825947
  0
LINE
  5
15A
100
AcDbEntity
  8
0
  6
ByLayer
 62
  256
370
   -1
100
AcDbLine
 10
9752.180023780416
 20
-6261.032055825947
 11
9752.180023780416
 21
-4561.032055825955
  0
LINE
  5
15B
100
AcDbEntity
  8
0
  6
ByLayer
 62
  256
370
   -1
100
AcDbLine
 10
-7018.301497957111
 20
-4201.219830630276
 11
-7618.301497957111
 21
-2161.032055825941
  0
LINE
  5
15C
100
AcDbEntity
  8
0
  6
ByLayer
 62
  256
370
   -1
100
AcDbLine
 10
-920.2502745726279
 20
-4561.032055825946
 11
-1156.600220189972
 21
-2161.032055825947
  0
LINE
  5
15D
100
AcDbEntity
  8
0
  6
ByLayer
 62
  256
370
   -1
100
AcDbLine
 10
25396.45733068016
 20
-6261.032055825916
 11
25396.45733068016
 21
-6090.802162736679
  0
LINE
  5
15E
100
AcDbEntity
  8
0
  6
ByLayer
 62
  256
370
   -1
100
AcDbLine
 10
24796.45733068018
 20
-4261.032055825948
 11
25696.45733068016
 21
-4261.032055825948
  0
LINE
  5
15F
100
AcDbEntity
  8
0
  6
ByLayer
 62
  256
370
   -1
100
AcDbLine
 10
-4153.202545331831
 20
-6261.032055825945
 11
-4653.15652633137
 21
-4561.032055825941
  0
LINE
  5
160
100
AcDbEntity
  8
0
  6
ByLayer
 62
  256
370
   -1
100
AcDbLine
 10
23596.45733068018
 20
-3250.238838323743
 11
22906.2519085211
 21
-2161.032055825946
  0
LINE
  5
161
100
AcDbEntity
  8
0
  6
ByLayer
 62
  256
370
   -1
100
AcDbLine
 10
23596.45733068018
 20
-3250.238838323743
 11
23596.45733068018
 21
-2161.032055825945
  0
LINE
  5
162
100
AcDbEntity
  8
0
  6
ByLayer
 62
  256
370
   -1
100
AcDbLine
 10
24796.45733068018
 20
-5143.947721265725
 11
24796.45733068018
 21
-4261.032055825948
  0
LINE
  5
163
100
AcDbEntity
  8
0
  6
ByLayer
 62
  256
370
   -1
100
AcDbLine
 10
-4153.202545331831
 20
-6661.032055825947
 11
-4153.202545331831
 21
-6261.032055825945
  0
LINE
  5
164
100
AcDbEntity
  8
0
  6
ByLayer
 62
  256
370
   -1
100
AcDbLine
 10
23596.45733068018
 20
-2161.032055825945
 11
24796.45733068018
 21
-2161.032055825944
  0
LINE
  5
165
100
AcDbEntity
  8
0
  6
ByLayer
 62
  256
370
   -1
100
AcDbLine
 10
24236.97387043378
 20
-4261.032055825948
 11
24796.45733068018
 21
-4261.032055825948
  0
LINE
  5
166
100
AcDbEntity
  8
0
  6
ByLayer
 62
  256
370
   -1
100
AcDbLine
 10
24796.45733068018
 20
-2161.032055825944
 11
25696.45733068016
 21
-2161.032055825943
  0
LINE
  5
167
100
AcDbEntity
  8
0
  6
ByLayer
 62
  256
370
   -1
100
AcDbLine
 10
25696.45733068016
 20
-4261.032055825948
 11
25696.45733068016
 21
-6661.032055825947
  0
LINE
  5
168
100
AcDbEntity
  8
0
  6
ByLayer
 62
  256
370
   -1
100
AcDbLine
 10
-5358.97391127188
 20
-2161.032055825941
 11
-4758.97391127188
 21
-2161.032055825941
  0
LINE
  5
169
100
AcDbEntity
  8
0
  6
ByLayer
 62
  256
370
   -1
100
AcDbLine
 10
-3853.202545331831
 20
-6661.032055825947
 11
-4153.202545331831
 21
-6661.032055825947
  0
LINE
  5
16A
100
AcDbEntity
  8
0
  6
ByLayer
 62
  256
370
   -1
100
AcDbLine
 10
24796.45733068018
 20
-4261.032055825948
 11
24796.45733068018
 21
-2161.032055825944
  0
ENDBLK
  5
51
330
4F
100
AcDbEntity
  8
0
100
AcDbBlockEnd
  0
ENDSEC
  0
SECTION
  2
ENTITIES
  0
LWPOLYLINE
  5
16B
100
AcDbEntity
  8
FINAL
  6
ByLayer
 62
  256
370
   -1
100
AcDbPolyline
 90
    4
 70
    1
 43
0
 10
0
 20
2399.999999999999
 10
300
 20
2399.999999999999
 10
300
 20
0
 10
0
 20
0
  0
LWPOLYLINE
  5
16C
100
AcDbEntity
  8
FINAL
  6
ByLayer
 62
  256
370
   -1
100
AcDbPolyline
 90
    4
 70
    1
 43
0
 10
931.8507771682998
 20
2399.999999999999
 10
1231.8507771683
 20
2399.999999999999
 10
1231.8507771683
 20
0
 10
931.8507771682998
 20
0
  0
LWPOLYLINE
  5
16D
100
AcDbEntity
  8
FINAL
  6
ByLayer
 62
  256
370
   -1
100
AcDbPolyline
 90
    4
 70
    1
 43
0
 10
1829.78503875584
 20
2399.999999999999
 10
2129.78503875584
 20
2399.999999999999
 10
2129.78503875584
 20
0
 10
1829.78503875584
 20
0
  0
LWPOLYLINE
  5
16E
100
AcDbEntity
  8
FINAL
  6
ByLayer
 62
  256
370
   -1
100
AcDbPolyline
 90
    4
 70
    1
 43
0
 10
2856.44701501073
 20
2100.000000000005
 10
3156.447015010737
 20
2100.000000000005
 10
3156.447015010737
 20
0
 10
2856.44701501073
 20
0
  0
LWPOLYLINE
  5
16F
100
AcDbEntity
  8
FINAL
  6
ByLayer
 62
  256
370
   -1
100
AcDbPolyline
 90
    4
 70
    1
 43
0
 10
23585.03583179773
 20
2100.000000000005
 10
23885.03583179773
 20
2100.000000000005
 10
23885.03583179773
 20
0
 10
23585.03583179773
 20
0
  0
LWPOLYLINE
  5
170
100
AcDbEntity
  8
FINAL
  6
ByLayer
 62
  256
370
   -1
100
AcDbPolyline
 90
    4
 70
    1
 43
0
 10
25114.19842122372
 20
2099.999999999993
 10
25414.19842122376
 20
2099.999999999993
 10
25414.19842122376
 20
0
 10
25114.19842122372
 20
0
  0
LWPOLYLINE
  5
171
100
AcDbEntity
  8
FINAL
  6
ByLayer
 62
  256
370
   -1
100
AcDbPolyline
 90
    4
 70
    1
 43
0
 10
27451.84843403825
 20
2399.999999999999
 10
27751.84843403825
 20
2399.999999999999
 10
27751.84843403825
 20
0
 10
27451.84843403825
 20
0
  0
LWPOLYLINE
  5
172
100
AcDbEntity
  8
FINAL
  6
ByLayer
 62
  256
370
   -1
100
AcDbPolyline
 90
    4
 70
    1
 43
0
 10
37141.26153428034
 20
2100.000000000003
 10
37441.26153428034
 20
2100.000000000003
 10
37441.26153428034
 20
0
 10
37141.26153428034
 20
0
  0
LWPOLYLINE
  5
173
100
AcDbEntity
  8
FINAL
  6
ByLayer
 62
  256
370
   -1
100
AcDbPolyline
 90
    4
 70
    1
 43
0
 10
44733.78094088861
 20
2399.999999999999
 10
45033.78094088864
 20
2399.999999999999
 10
45033.78094088864
 20
0
 10
44733.78094088861
 20
0
  0
LWPOLYLINE
  5
174
100
AcDbEntity
  8
FINAL
  6
ByLayer
 62
  256
370
   -1
100
AcDbPolyline
 90
    4
 70
    1
 43
0
 10
50706.54209829946
 20
2100.000000000052
 10
51006.54209829943
 20
2100.000000000052
 10
51006.54209829943
 20
0
 10
50706.54209829946
 20
0
  0
LWPOLYLINE
  5
175
100
AcDbEntity
  8
FINAL
  6
ByLayer
 62
  256
370
   -1
100
AcDbPolyline
 90
    5
 70
    1
 43
0
 10
47962.74380246595
 20
1742.061027988166
 10
47962.74380246592
 20
0
 10
48262.74380246595
 20
0
 10
48262.74380246595
 20
2399.999999999999
 10
47545.82292644004
 20
2399.999999999999
  0
LWPOLYLINE
  5
176
100
AcDbEntity
  8
FINAL
  6
ByLayer
 62
  256
370
   -1
100
AcDbPolyline
 90
    6
 70
    1
 43
0
 10
40158.47572812348
 20
1517.084334560222
 10
40758.47572812346
 20
570.2298930892684
 10
40758.47572812346
 20
0
 10
41058.47572812346
 20
0
 10
41058.47572812346
 20
2399.999999999999
 10
40158.47572812348
 20
2399.999999999999
  0
LWPOLYLINE
  5
177
100
AcDbEntity
  8
FINAL
  6
ByLayer
 62
  256
370
   -1
100
AcDbPolyline
 90
    5
 70
    1
 43
0
 10
33864.89007968556
 20
0
 10
33864.89007968556
 20
2399.999999999999
 10
32932.22762527095
 20
2400.000000000001
 10
33564.89007968556
 20
1401.601241809336
 10
33564.89007968556
 20
0
  0
LWPOLYLINE
  5
178
100
AcDbEntity
  8
FINAL
  6
ByLayer
 62
  256
370
   -1
100
AcDbPolyline
 90
    5
 70
    1
 43
0
 10
30635.76015627403
 20
2399.999999999999
 10
30635.76015627403
 20
0
 10
30335.76015627403
 20
0
 10
30335.76015627403
 20
1987.516809258634
 10
30074.37899396957
 20
2399.999999999999
  0
LWPOLYLINE
  5
179
100
AcDbEntity
  8
FINAL
  6
ByLayer
 62
  256
370
   -1
100
AcDbPolyline
 90
    6
 70
    1
 43
0
 10
23124.0467671761
 20
0
 10
22824.0467671764
 20
0
 10
22824.046767176
 20
399.9999999998145
 10
22650.22180188726
 20
1148.527573083121
 10
22706.30863858752
 20
2100.000000000005
 10
23124.0467671761
 20
2100.000000000005
  0
LWPOLYLINE
  5
17A
100
AcDbEntity
  8
FINAL
  6
ByLayer
 62
  256
370
   -1
100
AcDbPolyline
 90
    6
 70
    1
 43
0
 10
22153.31547153154
 20
2099.999999999989
 10
22153.31547153154
 20
2.728484105318785e-12
 10
21853.31547153175
 20
0
 10
21853.31547153147
 20
399.9999999998236
 10
21633.76871628484
 20
1345.415404572875
 10
21678.24952495882
 20
2099.999999999987
  0
LWPOLYLINE
  5
17B
100
AcDbEntity
  8
FINAL
  6
ByLayer
 62
  256
370
   -1
100
AcDbPolyline
 90
    6
 70
    1
 43
0
 10
21248.98172154024
 20
0
 10
20948.98172154041
 20
0
 10
20948.9817215402
 20
400.0000000000709
 10
20683.71317633573
 20
1542.30323606263
 10
20716.58795698341
 20
2099.999999999943
 10
21248.98172154024
 20
2099.999999999943
  0
LWPOLYLINE
  5
17C
100
AcDbEntity
  8
FINAL
  6
ByLayer
 62
  256
370
   -1
100
AcDbPolyline
 90
    6
 70
    1
 43
0
 10
20307.88266792564
 20
2099.999999999973
 10
20307.88266792568
 20
0
 10
20007.88266792566
 20
0
 10
20007.88266792554
 20
400.0000000001983
 10
19696.89233276321
 20
1739.191067552382
 10
19718.16108538462
 20
2099.999999999956
  0
LWPOLYLINE
  5
17D
100
AcDbEntity
  8
FINAL
  6
ByLayer
 62
  256
370
   -1
100
AcDbPolyline
 90
    6
 70
    1
 43
0
 10
19293.39099886815
 20
2100.000000000005
 10
19293.39099886815
 20
0
 10
18993.39099886815
 20
0
 10
18993.39099886815
 20
400.0000000000791
 10
18636.67887374791
 20
1936.078899042135
 10
18646.34159834303
 20
2100.000000000005
  0
LWPOLYLINE
  5
17E
100
AcDbEntity
  8
FINAL
  6
ByLayer
 62
  256
370
   -1
100
AcDbPolyline
 90
    5
 70
    1
 43
0
 10
17917.3661731398
 20
0
 10
17617.36617313982
 20
0
 10
17617.3661731398
 20
400.0000000000055
 10
17449.9516283275
 20
2100.000000000001
 10
17917.3661731398
 20
2100.000000000001
  0
LWPOLYLINE
  5
17F
100
AcDbEntity
  8
FINAL
  6
ByLayer
 62
  256
370
   -1
100
AcDbPolyline
 90
    5
 70
    1
 43
0
 10
14909.18266768294
 20
2100.000000000001
 10
14909.18266768294
 20
0
 10
14609.18266768299
 20
0
 10
14609.18266768297
 20
399.9999999999973
 10
14441.76812287067
 20
2100.000000000001
  0
LWPOLYLINE
  5
180
100
AcDbEntity
  8
FINAL
  6
ByLayer
 62
  256
370
   -1
100
AcDbPolyline
 90
    5
 70
    1
 43
0
 10
13600.67794310278
 20
2100.000000000005
 10
13600.67794310278
 20
0
 10
13300.67794310278
 20
0
 10
13300.67794310278
 20
400.0000000000045
 10
12800.72396210325
 20
2100.000000000005
  0
LWPOLYLINE
  5
181
100
AcDbEntity
  8
FINAL
  6
ByLayer
 62
  256
370
   -1
100
AcDbPolyline
 90
    5
 70
    1
 43
0
 10
11508.81585211147
 20
2100.000000000006
 10
11508.81585211147
 20
0
 10
11208.81585211147
 20
0
 10
11208.81585211147
 20
400.0000000000027
 10
10708.86187111193
 20
2100.000000000006
  0
LWPOLYLINE
  5
182
100
AcDbEntity
  8
FINAL
  6
ByLayer
 62
  256
370
   -1
100
AcDbPolyline
 90
    5
 70
    1
 43
0
 10
9249.488265426238
 20
2100.000000000005
 10
9249.488265426238
 20
0
 10
8949.488265426238
 20
0
 10
8949.488265426238
 20
400.0000000000027
 10
8449.534284426698
 20
2100.000000000005
  0
LWPOLYLINE
  5
183
100
AcDbEntity
  8
FINAL
  6
ByLayer
 62
  256
370
   -1
100
AcDbPolyline
 90
    5
 70
    1
 43
0
 10
7584.425284426099
 20
2399.999999999999
 10
7584.425284426099
 20
0
 10
7284.425284426099
 20
0
 10
7284.425284426099
 20
400
 10
6696.244130309009
 20
2400.000000000001
  0
LWPOLYLINE
  5
184
100
AcDbEntity
  8
FINAL
  6
ByLayer
 62
  256
370
   -1
100
AcDbPolyline
 90
    5
 70
    1
 43
0
 10
5415.971837231358
 20
2100.000000000005
 10
5415.971837231358
 20
0
 10
5115.971837231358
 20
0
 10
5115.971837231358
 20
400.0000000000009
 10
4616.017856231818
 20
2100.000000000005
  0
LWPOLYLINE
  5
185
100
AcDbEntity
  8
FINAL
  6
ByLayer
 62
  256
370
   -1
100
AcDbPolyline
 90
    4
 70
    1
 43
0
 10
0
 20
5100.000000000006
 10
300
 20
5100.000000000006
 10
300
 20
3000
 10
0
 20
3000
  0
LWPOLYLINE
  5
186
100
AcDbEntity
  8
FINAL
  6
ByLayer
 62
  256
370
   -1
100
AcDbPolyline
 90
    4
 70
    1
 43
0
 10
931.8507771682998
 20
5100.000000000006
 10
1231.8507771683
 20
5100.000000000006
 10
1231.8507771683
 20
3000
 10
931.8507771682998
 20
3000
  0
LWPOLYLINE
  5
187
100
AcDbEntity
  8
FINAL
  6
ByLayer
 62
  256
370
   -1
100
AcDbPolyline
 90
    4
 70
    1
 43
0
 10
1829.78503875584
 20
5100.000000000006
 10
2129.78503875584
 20
5100.000000000006
 10
2129.78503875584
 20
3000
 10
1829.78503875584
 20
3000
  0
LWPOLYLINE
  5
188
100
AcDbEntity
  8
FINAL
  6
ByLayer
 62
  256
370
   -1
100
AcDbPolyline
 90
    4
 70
    1
 43
0
 10
23585.03583179773
 20
5100.000000000005
 10
23885.03583179773
 20
5100.000000000005
 10
23885.03583179773
 20
2700.000000000006
 10
23585.03583179773
 20
2700.000000000006
  0
LWPOLYLINE
  5
189
100
AcDbEntity
  8
FINAL
  6
ByLayer
 62
  256
370
   -1
100
AcDbPolyline
 90
    4
 70
    1
 43
0
 10
27451.84843403825
 20
5100.000000000001
 10
27751.84843403825
 20
5100.000000000001
 10
27751.84843403825
 20
3000
 10
27451.84843403825
 20
3000
  0
LWPOLYLINE
  5
18A
100
AcDbEntity
  8
FINAL
  6
ByLayer
 62
  256
370
   -1
100
AcDbPolyline
 90
    4
 70
    1
 43
0
 10
37141.26153428034
 20
5100.000000000003
 10
37441.26153428034
 20
5100.000000000003
 10
37441.26153428034
 20
2700.000000000004
 10
37141.26153428034
 20
2700.000000000004
  0
LWPOLYLINE
  5
18B
100
AcDbEntity
  8
FINAL
  6
ByLayer
 62
  256
370
   -1
100
AcDbPolyline
 90
    4
 70
    1
 43
0
 10
44733.78094088861
 20
5100.000000000003
 10
45033.78094088861
 20
5100.000000000003
 10
45033.78094088861
 20
3000
 10
44733.78094088861
 20
3000
  0
LWPOLYLINE
  5
18C
100
AcDbEntity
  8
FINAL
  6
ByLayer
 62
  256
370
   -1
100
AcDbPolyline
 90
    5
 70
    1
 43
0
 10
47415.10096452736
 20
5100
 10
48262.74380246595
 20
5100.000000000003
 10
48262.74380246595
 20
3000
 10
47545.82292644004
 20
3000
 10
47415.10096452736
 20
3206.291117058041
  0
LWPOLYLINE
  5
18D
100
AcDbEntity
  8
FINAL
  6
ByLayer
 62
  256
370
   -1
100
AcDbPolyline
 90
    4
 70
    1
 43
0
 10
40158.47572812348
 20
5100.000000000005
 10
41058.47572812346
 20
5100.000000000005
 10
41058.47572812346
 20
3000
 10
40158.47572812348
 20
3000
  0
LWPOLYLINE
  5
18E
100
AcDbEntity
  8
FINAL
  6
ByLayer
 62
  256
370
   -1
100
AcDbPolyline
 90
    5
 70
    1
 43
0
 10
33864.89007968556
 20
5100.000000000003
 10
33864.89007968556
 20
3000
 10
32932.22762527095
 20
3000.000000000002
 10
32801.50566335827
 20
3206.291117058039
 10
32801.50566335827
 20
5100.000000000003
  0
LWPOLYLINE
  5
18F
100
AcDbEntity
  8
FINAL
  6
ByLayer
 62
  256
370
   -1
100
AcDbPolyline
 90
    5
 70
    1
 43
0
 10
29943.65703205689
 20
5100.000000000001
 10
30635.76015627403
 20
5100.000000000003
 10
30635.76015627403
 20
3000
 10
30074.37899396957
 20
3000
 10
29943.65703205689
 20
3206.291117058036
  0
LWPOLYLINE
  5
190
100
AcDbEntity
  8
FINAL
  6
ByLayer
 62
  256
370
   -1
100
AcDbPolyline
 90
    5
 70
    1
 43
0
 10
25414.19842122374
 20
2699.999999999995
 10
25414.19842122372
 20
5099.999999999996
 10
24734.91291995392
 20
5099.999999999987
 10
25114.19842122372
 20
4501.453064228554
 10
25114.19842122372
 20
2699.999999999994
  0
LWPOLYLINE
  5
191
100
AcDbEntity
  8
FINAL
  6
ByLayer
 62
  256
370
   -1
100
AcDbPolyline
 90
    4
 70
    1
 43
0
 10
23124.0467671761
 20
2700.000000000006
 10
23124.0467671761
 20
5100.000000000007
 10
22847.78242623766
 20
5100.000000000007
 10
22706.30863858752
 20
2700.000000000006
  0
LWPOLYLINE
  5
192
100
AcDbEntity
  8
FINAL
  6
ByLayer
 62
  256
370
   -1
100
AcDbPolyline
 90
    4
 70
    1
 43
0
 10
22153.31547153154
 20
5099.999999999989
 10
21819.72331260896
 20
5099.999999999985
 10
21678.24952495882
 20
2699.999999999988
 10
22153.31547153154
 20
2699.99999999999
  0
LWPOLYLINE
  5
193
100
AcDbEntity
  8
FINAL
  6
ByLayer
 62
  256
370
   -1
100
AcDbPolyline
 90
    4
 70
    1
 43
0
 10
21248.98172154024
 20
2699.999999999944
 10
21248.98172154024
 20
5099.999999999943
 10
20858.06174463355
 20
5099.999999999923
 10
20716.58795698341
 20
2699.999999999944
  0
LWPOLYLINE
  5
194
100
AcDbEntity
  8
FINAL
  6
ByLayer
 62
  256
370
   -1
100
AcDbPolyline
 90
    4
 70
    1
 43
0
 10
20307.88266792556
 20
5099.999999999972
 10
19859.63487303476
 20
5099.999999999961
 10
19718.16108538462
 20
2699.999999999957
 10
20307.88266792564
 20
2699.999999999974
  0
LWPOLYLINE
  5
195
100
AcDbEntity
  8
FINAL
  6
ByLayer
 62
  256
370
   -1
100
AcDbPolyline
 90
    4
 70
    1
 43
0
 10
19293.39099886815
 20
2700.000000000006
 10
19293.39099886815
 20
5100.000000000006
 10
18787.81538599317
 20
5099.999999999999
 10
18646.34159834303
 20
2700.000000000006
  0
LWPOLYLINE
  5
196
100
AcDbEntity
  8
FINAL
  6
ByLayer
 62
  256
370
   -1
100
AcDbPolyline
 90
    4
 70
    1
 43
0
 10
17917.3661731398
 20
2700.000000000002
 10
17917.3661731398
 20
5100.000000000001
 10
17213.60168271016
 20
5100
 10
17449.9516283275
 20
2700.000000000002
  0
LWPOLYLINE
  5
197
100
AcDbEntity
  8
FINAL
  6
ByLayer
 62
  256
370
   -1
100
AcDbPolyline
 90
    4
 70
    1
 43
0
 10
14909.18266768294
 20
2700.000000000002
 10
14909.18266768294
 20
5100.000000000001
 10
14205.41817725333
 20
5100.000000000001
 10
14441.76812287067
 20
2700.000000000002
  0
LWPOLYLINE
  5
198
100
AcDbEntity
  8
FINAL
  6
ByLayer
 62
  256
370
   -1
100
AcDbPolyline
 90
    5
 70
    1
 43
0
 10
12694.90657716274
 20
5100.000000000006
 10
12694.90657716274
 20
3059.812225195672
 10
12800.72396210325
 20
2700.000000000006
 10
13600.67794310278
 20
2700.000000000006
 10
13600.67794310278
 20
5100.000000000006
  0
LWPOLYLINE
  5
199
100
AcDbEntity
  8
FINAL
  6
ByLayer
 62
  256
370
   -1
100
AcDbPolyline
 90
    5
 70
    1
 43
0
 10
10603.04448617142
 20
5100.000000000007
 10
11508.81585211147
 20
5100.000000000006
 10
11508.81585211147
 20
2700.000000000007
 10
10708.86187111193
 20
2700.000000000007
 10
10603.04448617142
 20
3059.812225195672
  0
LWPOLYLINE
  5
19A
100
AcDbEntity
  8
FINAL
  6
ByLayer
 62
  256
370
   -1
100
AcDbPolyline
 90
    5
 70
    1
 43
0
 10
9249.488265426238
 20
2700.000000000006
 10
9249.488265426238
 20
5100.000000000006
 10
8343.716899486188
 20
5100.000000000007
 10
8343.716899486188
 20
3059.812225195672
 10
8449.534284426698
 20
2700.000000000006
  0
LWPOLYLINE
  5
19B
100
AcDbEntity
  8
FINAL
  6
ByLayer
 62
  256
370
   -1
100
AcDbPolyline
 90
    5
 70
    1
 43
0
 10
7584.425284426099
 20
5100.000000000008
 10
6678.653918486048
 20
5100.000000000008
 10
6678.653918486048
 20
3059.812225195669
 10
6696.244130309009
 20
3000.000000000002
 10
7584.425284426099
 20
3000
  0
LWPOLYLINE
  5
19C
100
AcDbEntity
  8
FINAL
  6
ByLayer
 62
  256
370
   -1
100
AcDbPolyline
 90
    5
 70
    1
 43
0
 10
5415.971837231358
 20
2700.000000000006
 10
5415.971837231358
 20
5100.000000000006
 10
4510.200471291308
 20
5100.000000000006
 10
4510.200471291308
 20
3059.81222519567
 10
4616.017856231818
 20
2700.000000000006
  0
LWPOLYLINE
  5
19D
100
AcDbEntity
  8
FINAL
  6
ByLayer
 62
  256
370
   -1
100
AcDbPolyline
 90
    5
 70
    1
 43
0
 10
2856.44701501073
 20
2700.000000000005
 10
2856.44701501073
 20
4607.06407468509
 10
2711.479204281979
 20
5100.000000000005
 10
3156.447015010737
 20
5100.000000000005
 10
3156.447015010737
 20
2700.000000000005
  0
LWPOLYLINE
  5
19E
100
AcDbEntity
  8
FINAL
  6
ByLayer
 62
  256
370
   -1
100
AcDbPolyline
 90
    3
 70
    1
 43
0
 10
44623.58046959731
 20
1156.145460538726
 10
44623.58046959731
 20
2399.999999999999
 10
43835.37830146115
 20
2400.000000000001
  0
LWPOLYLINE
  5
19F
100
AcDbEntity
  8
FINAL
  6
ByLayer
 62
  256
370
   -1
100
AcDbPolyline
 90
    3
 70
    1
 43
0
 10
40048.27525683217
 20
2399.999999999999
 10
40048.27525683217
 20
1517.084334560222
 10
39488.79179658578
 20
2399.999999999999
  0
LWPOLYLINE
  5
1A0
100
AcDbEntity
  8
FINAL
  6
ByLayer
 62
  256
370
   -1
100
AcDbPolyline
 90
    3
 70
    1
 43
0
 10
36217.22045388041
 20
2100.000000000003
 10
37031.06106298903
 20
815.685674360082
 10
37031.06106298903
 20
2100.000000000003
  0
LWPOLYLINE
  5
1A1
100
AcDbEntity
  8
FINAL
  6
ByLayer
 62
  256
370
   -1
100
AcDbPolyline
 90
    3
 70
    1
 43
0
 10
47304.90049323605
 20
5100
 10
46104.90049323605
 20
5099.999999999994
 10
47304.90049323605
 20
3206.291117058041
  0
LWPOLYLINE
  5
1A2
100
AcDbEntity
  8
FINAL
  6
ByLayer
 62
  256
370
   -1
100
AcDbPolyline
 90
    5
 70
    1
 43
0
 10
44623.58046959731
 20
3000
 10
43835.37830146115
 20
3000.000000000002
 10
43423.58046959731
 20
3649.8543434807
 10
43423.58046959731
 20
5099.999999999999
 10
44623.58046959731
 20
5100.000000000003
  0
LWPOLYLINE
  5
1A3
100
AcDbEntity
  8
FINAL
  6
ByLayer
 62
  256
370
   -1
100
AcDbPolyline
 90
    5
 70
    1
 43
0
 10
38848.27525683217
 20
5100.000000000003
 10
38848.27525683217
 20
4010.793217502205
 10
39488.79179658578
 20
3000
 10
40048.27525683217
 20
3000
 10
40048.27525683217
 20
5100.000000000005
  0
LWPOLYLINE
  5
1A4
100
AcDbEntity
  8
FINAL
  6
ByLayer
 62
  256
370
   -1
100
AcDbPolyline
 90
    5
 70
    1
 43
0
 10
35831.06106298903
 20
5100.000000000003
 10
37031.06106298903
 20
5100.000000000003
 10
37031.06106298903
 20
2700.000000000004
 10
36217.22045388041
 20
2700.000000000004
 10
35831.06106298903
 20
3309.394557302059
  0
LWPOLYLINE
  5
1A5
100
AcDbEntity
  8
FINAL
  6
ByLayer
 62
  256
370
   -1
100
AcDbPolyline
 90
    3
 70
    1
 43
0
 10
32691.30519206696
 20
5100.000000000003
 10
31491.30519206696
 20
5100
 10
32691.30519206696
 20
3206.291117058039
  0
LWPOLYLINE
  5
1A6
100
AcDbEntity
  8
FINAL
  6
ByLayer
 62
  256
370
   -1
100
AcDbPolyline
 90
    3
 70
    1
 43
0
 10
29833.45656076558
 20
5100.000000000001
 10
28633.45656076558
 20
5099.999999999996
 10
29833.45656076558
 20
3206.291117058036
  0
LWPOLYLINE
  5
1A7
100
AcDbEntity
  8
FINAL
  6
ByLayer
 62
  256
370
   -1
100
AcDbPolyline
 90
    4
 70
    1
 43
0
 10
26141.64796274694
 20
5067.141259649924
 10
26141.64796274694
 20
5099.999999999992
 10
27341.64796274694
 20
5100.000000000001
 10
27341.64796274694
 20
3173.432376707953
  0
LWPOLYLINE
  5
1A8
100
AcDbEntity
  8
FINAL
  6
ByLayer
 62
  256
370
   -1
100
AcDbPolyline
 90
    3
 70
    1
 43
0
 10
11984.70610587143
 20
5100.000000000006
 10
12584.70610587143
 20
5100.000000000006
 10
12584.70610587143
 20
3059.812225195672
  0
LWPOLYLINE
  5
1A9
100
AcDbEntity
  8
FINAL
  6
ByLayer
 62
  256
370
   -1
100
AcDbPolyline
 90
    3
 70
    1
 43
0
 10
9892.844014880111
 20
5100.000000000007
 10
10492.84401488011
 20
3059.812225195672
 10
10492.84401488011
 20
5100.000000000007
  0
LWPOLYLINE
  5
1AA
100
AcDbEntity
  8
FINAL
  6
ByLayer
 62
  256
370
   -1
100
AcDbPolyline
 90
    3
 70
    1
 43
0
 10
7633.51642819488
 20
5100.000000000007
 10
8233.51642819488
 20
5100.000000000007
 10
8233.51642819488
 20
3059.812225195672
  0
LWPOLYLINE
  5
1AB
100
AcDbEntity
  8
FINAL
  6
ByLayer
 62
  256
370
   -1
100
AcDbPolyline
 90
    3
 70
    1
 43
0
 10
5968.453447194741
 20
5100.000000000005
 10
6568.453447194741
 20
5100.000000000008
 10
6568.453447194741
 20
3059.812225195669
  0
LWPOLYLINE
  5
1AC
100
AcDbEntity
  8
FINAL
  6
ByLayer
 62
  256
370
   -1
100
AcDbPolyline
 90
    3
 70
    1
 43
0
 10
3800
 20
5100.000000000005
 10
4400
 20
5100.000000000006
 10
4400
 20
3059.81222519567
  0
LWPOLYLINE
  5
1AD
100
AcDbEntity
  8
FINAL
  6
ByLayer
 62
  256
370
   -1
100
AcDbPolyline
 90
    3
 70
    1
 43
0
 10
43300
 20
5099.999999999999
 10
42381.07586995118
 20
5099.999999999996
 10
43300
 20
3649.8543434807
  0
LWPOLYLINE
  5
1AE
100
AcDbEntity
  8
FINAL
  6
ByLayer
 62
  256
370
   -1
100
AcDbPolyline
 90
    3
 70
    1
 43
0
 10
38724.69478723487
 20
4010.793217502205
 10
38034.48936507579
 20
5100.000000000003
 10
38724.69478723487
 20
5100.000000000003
  0
LWPOLYLINE
  5
1AF
100
AcDbEntity
  8
FINAL
  6
ByLayer
 62
  256
370
   -1
100
AcDbPolyline
 90
    3
 70
    1
 43
0
 10
35707.48059339172
 20
5100.000000000003
 10
34572.81488495432
 20
5099.999999999998
 10
35707.48059339172
 20
3309.394557302059
  0
LWPOLYLINE
  5
1B0
100
AcDbEntity
  8
FINAL
  6
ByLayer
 62
  256
370
   -1
100
AcDbPolyline
 90
    3
 70
    1
 43
0
 10
49219.9800811798
 20
5100.000000000054
 10
50419.9800811798
 20
3206.29111705794
 10
50419.9800811798
 20
5100.000000000054
  0
LWPOLYLINE
  5
1B1
100
AcDbEntity
  8
FINAL
  6
ByLayer
 62
  256
370
   -1
100
AcDbPolyline
 90
    6
 70
    1
 43
0
 10
50530.18055247112
 20
5100.000000000054
 10
51006.54209829943
 20
5100.000000000017
 10
51006.54209829943
 20
2700.000000000053
 10
50706.54209829946
 20
2700.000000000053
 10
50706.54209829946
 20
2927.976595437519
 10
50530.18055247112
 20
3206.29111705794
  0
TEXT
  5
1B2
100
AcDbEntity
  8
text
  6
ByLayer
 62
  256
370
   -1
100
AcDbText
 10
200
 20
3100
 30
0
 40
100
  1
STR-A-01
 50
90
 41
1
 51
0
  7
standard
 71
    0
210
0
220
0
230
1
100
AcDbText
  0
TEXT
  5
1B3
100
AcDbEntity
  8
text
  6
ByLayer
 62
  256
370
   -1
100
AcDbText
 10
200
 20
100
 30
0
 40
100
  1
STR-A-02
 50
90
 41
1
 51
0
  7
standard
 71
    0
210
0
220
0
230
1
100
AcDbText
  0
TEXT
  5
1B4
100
AcDbEntity
  8
text
  6
ByLayer
 62
  256
370
   -1
100
AcDbText
 10
1100
 20
100
 30
0
 40
100
  1
STR-B-02
 50
90
 41
1
 51
0
  7
standard
 71
    0
210
0
220
0
230
1
100
AcDbText
  0
TEXT
  5
1B5
100
AcDbEntity
  8
text
  6
ByLayer
 62
  256
370
   -1
100
AcDbText
 10
1100
 20
3100
 30
0
 40
100
  1
STR-B-01
 50
90
 41
1
 51
0
  7
standard
 71
    0
210
0
220
0
230
1
100
AcDbText
  0
TEXT
  5
1B6
100
AcDbEntity
  8
text
  6
ByLayer
 62
  256
370
   -1
100
AcDbText
 10
2000
 20
3100
 30
0
 40
100
  1
STR-C-01
 50
90
 41
1
 51
0
  7
standard
 71
    0
210
0
220
0
230
1
100
AcDbText
  0
TEXT
  5
1B7
100
AcDbEntity
  8
text
  6
ByLayer
 62
  256
370
   -1
100
AcDbText
 10
3000
 20
2800
 30
0
 40
100
  1
STR-D-01
 50
90
 41
1
 51
0
  7
standard
 71
    0
210
0
220
0
230
1
100
AcDbText
  0
TEXT
  5
1B8
100
AcDbEntity
  8
text
  6
ByLayer
 62
  256
370
   -1
100
AcDbText
 10
2000
 20
100
 30
0
 40
100
  1
STR-C-02
 50
90
 41
1
 51
0
  7
standard
 71
    0
210
0
220
0
230
1
100
AcDbText
  0
TEXT
  5
1B9
100
AcDbEntity
  8
text
  6
ByLayer
 62
  256
370
   -1
100
AcDbText
 10
3000
 20
100
 30
0
 40
100
  1
STR-D-02
 50
90
 41
1
 51
0
  7
standard
 71
    0
210
0
220
0
230
1
100
AcDbText
  0
TEXT
  5
1BA
100
AcDbEntity
  8
text
  6
ByLayer
 62
  256
370
   -1
100
AcDbText
 10
5300
 20
1400
 30
0
 40
100
  1
STR-E-03
 50
90
 41
1
 51
0
  7
standard
 71
    0
210
0
220
0
230
1
100
AcDbText
  0
TEXT
  5
1BB
100
AcDbEntity
  8
text
  6
ByLayer
 62
  256
370
   -1
100
AcDbText
 10
4300
 20
4300
 30
0
 40
100
  1
STR-E-01
 50
90
 41
1
 51
0
  7
standard
 71
    0
210
0
220
0
230
1
100
AcDbText
  0
TEXT
  5
1BC
100
AcDbEntity
  8
text
  6
ByLayer
 62
  256
370
   -1
100
AcDbText
 10
5300
 20
4300
 30
0
 40
100
  1
STR-E-02
 50
90
 41
1
 51
0
  7
standard
 71
    0
210
0
220
0
230
1
100
AcDbText
  0
TEXT
  5
1BD
100
AcDbEntity
  8
text
  6
ByLayer
 62
  256
370
   -1
100
AcDbText
 10
6500
 20
4400
 30
0
 40
100
  1
STR-F-01
 50
90
 41
1
 51
0
  7
standard
 71
    0
210
0
220
0
230
1
100
AcDbText
  0
TEXT
  5
1BE
100
AcDbEntity
  8
text
  6
ByLayer
 62
  256
370
   -1
100
AcDbText
 10
7500
 20
4300
 30
0
 40
100
  1
STR-F-02
 50
90
 41
1
 51
0
  7
standard
 71
    0
210
0
220
0
230
1
100
AcDbText
  0
TEXT
  5
1BF
100
AcDbEntity
  8
text
  6
ByLayer
 62
  256
370
   -1
100
AcDbText
 10
7500
 20
1700
 30
0
 40
100
  1
STR-F-03
 50
90
 41
1
 51
0
  7
standard
 71
    0
210
0
220
0
230
1
100
AcDbText
  0
TEXT
  5
1C0
100
AcDbEntity
  8
text
  6
ByLayer
 62
  256
370
   -1
100
AcDbText
 10
8100
 20
4400
 30
0
 40
100
  1
STR-G-01
 50
90
 41
1
 51
0
  7
standard
 71
    0
210
0
220
0
230
1
100
AcDbText
  0
TEXT
  5
1C1
100
AcDbEntity
  8
text
  6
ByLayer
 62
  256
370
   -1
100
AcDbText
 10
9100
 20
4300
 30
0
 40
100
  1
STR-G-02
 50
90
 41
1
 51
0
  7
standard
 71
    0
210
0
220
0
230
1
100
AcDbText
  0
TEXT
  5
1C2
100
AcDbEntity
  8
text
  6
ByLayer
 62
  256
370
   -1
100
AcDbText
 10
9100
 20
1300
 30
0
 40
100
  1
STR-G-03
 50
90
 41
1
 51
0
  7
standard
 71
    0
210
0
220
0
230
1
100
AcDbText
  0
TEXT
  5
1C3
100
AcDbEntity
  8
text
  6
ByLayer
 62
  256
370
   -1
100
AcDbText
 10
10400
 20
4300
 30
0
 40
100
  1
STR-H-01
 50
90
 41
1
 51
0
  7
standard
 71
    0
210
0
220
0
230
1
100
AcDbText
  0
TEXT
  5
1C4
100
AcDbEntity
  8
text
  6
ByLayer
 62
  256
370
   -1
100
AcDbText
 10
11400
 20
4300
 30
0
 40
100
  1
STR-H-02
 50
90
 41
1
 51
0
  7
standard
 71
    0
210
0
220
0
230
1
100
AcDbText
  0
TEXT
  5
1C5
100
AcDbEntity
  8
text
  6
ByLayer
 62
  256
370
   -1
100
AcDbText
 10
11400
 20
1300
 30
0
 40
100
  1
STR-H-03
 50
90
 41
1
 51
0
  7
standard
 71
    0
210
0
220
0
230
1
100
AcDbText
  0
TEXT
  5
1C6
100
AcDbEntity
  8
text
  6
ByLayer
 62
  256
370
   -1
100
AcDbText
 10
12500
 20
4300
 30
0
 40
100
  1
STR-I-01
 50
90
 41
1
 51
0
  7
standard
 71
    0
210
0
220
0
230
1
100
AcDbText
  0
TEXT
  5
1C7
100
AcDbEntity
  8
text
  6
ByLayer
 62
  256
370
   -1
100
AcDbText
 10
13500
 20
4300
 30
0
 40
100
  1
STR-I-02
 50
90
 41
1
 51
0
  7
standard
 71
    0
210
0
220
0
230
1
100
AcDbText
  0
TEXT
  5
1C8
100
AcDbEntity
  8
text
  6
ByLayer
 62
  256
370
   -1
100
AcDbText
 10
13500
 20
1400
 30
0
 40
100
  1
STR-I-03
 50
90
 41
1
 51
0
  7
standard
 71
    0
210
0
220
0
230
1
100
AcDbText
  0
TEXT
  5
1C9
100
AcDbEntity
  8
text
  6
ByLayer
 62
  256
370
   -1
100
AcDbText
 10
14800
 20
4300
 30
0
 40
100
  1
STR-J-01
 50
90
 41
1
 51
0
  7
standard
 71
    0
210
0
220
0
230
1
100
AcDbText
  0
TEXT
  5
1CA
100
AcDbEntity
  8
text
  6
ByLayer
 62
  256
370
   -1
100
AcDbText
 10
14800
 20
1300
 30
0
 40
100
  1
STR-J-02
 50
90
 41
1
 51
0
  7
standard
 71
    0
210
0
220
0
230
1
100
AcDbText
  0
TEXT
  5
1CB
100
AcDbEntity
  8
text
  6
ByLayer
 62
  256
370
   -1
100
AcDbText
 10
17800
 20
4300
 30
0
 40
100
  1
STR-K-01
 50
90
 41
1
 51
0
  7
standard
 71
    0
210
0
220
0
230
1
100
AcDbText
  0
TEXT
  5
1CC
100
AcDbEntity
  8
text
  6
ByLayer
 62
  256
370
   -1
100
AcDbText
 10
17800
 20
1300
 30
0
 40
100
  1
STR-K-02
 50
90
 41
1
 51
0
  7
standard
 71
    0
210
0
220
0
230
1
100
AcDbText
  0
TEXT
  5
1CD
100
AcDbEntity
  8
text
  6
ByLayer
 62
  256
370
   -1
100
AcDbText
 10
19100
 20
1300
 30
0
 40
100
  1
STR-L-02
 50
90
 41
1
 51
0
  7
standard
 71
    0
210
0
220
0
230
1
100
AcDbText
  0
TEXT
  5
1CE
100
AcDbEntity
  8
text
  6
ByLayer
 62
  256
370
   -1
100
AcDbText
 10
19100
 20
2800
 30
0
 40
100
  1
STR-L-01
 50
90
 41
1
 51
0
  7
standard
 71
    0
210
0
220
0
230
1
100
AcDbText
  0
TEXT
  5
1CF
100
AcDbEntity
  8
text
  6
ByLayer
 62
  256
370
   -1
100
AcDbText
 10
20200
 20
2800
 30
0
 40
100
  1
STR-M-01
 50
90
 41
1
 51
0
  7
standard
 71
    0
210
0
220
0
230
1
100
AcDbText
  0
TEXT
  5
1D0
100
AcDbEntity
  8
text
  6
ByLayer
 62
  256
370
   -1
100
AcDbText
 10
20100
 20
1200
 30
0
 40
100
  1
STR-M-02
 50
90
 41
1
 51
0
  7
standard
 71
    0
210
0
220
0
230
1
100
AcDbText
  0
TEXT
  5
1D1
100
AcDbEntity
  8
text
  6
ByLayer
 62
  256
370
   -1
100
AcDbText
 10
21100
 20
2800
 30
0
 40
100
  1
STR-N-01
 50
90
 41
1
 51
0
  7
standard
 71
    0
210
0
220
0
230
1
100
AcDbText
  0
TEXT
  5
1D2
100
AcDbEntity
  8
text
  6
ByLayer
 62
  256
370
   -1
100
AcDbText
 10
21100
 20
1200
 30
0
 40
100
  1
STR-N-02
 50
90
 41
1
 51
0
  7
standard
 71
    0
210
0
220
0
230
1
100
AcDbText
  0
TEXT
  5
1D3
100
AcDbEntity
  8
text
  6
ByLayer
 62
  256
370
   -1
100
AcDbText
 10
22000
 20
2800
 30
0
 40
100
  1
STR-O-01
 50
90
 41
1
 51
0
  7
standard
 71
    0
210
0
220
0
230
1
100
AcDbText
  0
TEXT
  5
1D4
100
AcDbEntity
  8
text
  6
ByLayer
 62
  256
370
   -1
100
AcDbText
 10
21900
 20
1200
 30
0
 40
100
  1
STR-O-02
 50
90
 41
1
 51
0
  7
standard
 71
    0
210
0
220
0
230
1
100
AcDbText
  0
TEXT
  5
1D5
100
AcDbEntity
  8
text
  6
ByLayer
 62
  256
370
   -1
100
AcDbText
 10
23000
 20
2900
 30
0
 40
100
  1
STR-P-01
 50
90
 41
1
 51
0
  7
standard
 71
    0
210
0
220
0
230
1
100
AcDbText
  0
TEXT
  5
1D6
100
AcDbEntity
  8
text
  6
ByLayer
 62
  256
370
   -1
100
AcDbText
 10
23000
 20
1100
 30
0
 40
100
  1
STR-P-02
 50
90
 41
1
 51
0
  7
standard
 71
    0
210
0
220
0
230
1
100
AcDbText
  0
TEXT
  5
1D7
100
AcDbEntity
  8
text
  6
ByLayer
 62
  256
370
   -1
100
AcDbText
 10
23800
 20
2800
 30
0
 40
100
  1
STR-Q-01
 50
90
 41
1
 51
0
  7
standard
 71
    0
210
0
220
0
230
1
100
AcDbText
  0
TEXT
  5
1D8
100
AcDbEntity
  8
text
  6
ByLayer
 62
  256
370
   -1
100
AcDbText
 10
23800
 20
1100
 30
0
 40
100
  1
STR-Q-02
 50
90
 41
1
 51
0
  7
standard
 71
    0
210
0
220
0
230
1
100
AcDbText
  0
TEXT
  5
1D9
100
AcDbEntity
  8
text
  6
ByLayer
 62
  256
370
   -1
100
AcDbText
 10
25300
 20
4200
 30
0
 40
100
  1
STR-R-01
 50
90
 41
1
 51
0
  7
standard
 71
    0
210
0
220
0
230
1
100
AcDbText
  0
TEXT
  5
1DA
100
AcDbEntity
  8
text
  6
ByLayer
 62
  256
370
   -1
100
AcDbText
 10
25300
 20
1200
 30
0
 40
100
  1
STR-R-02
 50
90
 41
1
 51
0
  7
standard
 71
    0
210
0
220
0
230
1
100
AcDbText
  0
TEXT
  5
1DB
100
AcDbEntity
  8
text
  6
ByLayer
 62
  256
370
   -1
100
AcDbText
 10
27200
 20
4300
 30
0
 40
100
  1
STR-S-01
 50
90
 41
1
 51
0
  7
standard
 71
    0
210
0
220
0
230
1
100
AcDbText
  0
TEXT
  5
1DC
100
AcDbEntity
  8
text
  6
ByLayer
 62
  256
370
   -1
100
AcDbText
 10
27600
 20
4300
 30
0
 40
100
  1
STR-S-02
 50
90
 41
1
 51
0
  7
standard
 71
    0
210
0
220
0
230
1
100
AcDbText
  0
TEXT
  5
1DD
100
AcDbEntity
  8
text
  6
ByLayer
 62
  256
370
   -1
100
AcDbText
 10
27600
 20
1500
 30
0
 40
100
  1
STR-S-03
 50
90
 41
1
 51
0
  7
standard
 71
    0
210
0
220
0
230
1
100
AcDbText
  0
TEXT
  5
1DE
100
AcDbEntity
  8
text
  6
ByLayer
 62
  256
370
   -1
100
AcDbText
 10
29700
 20
4300
 30
0
 40
100
  1
STR-T-01
 50
90
 41
1
 51
0
  7
standard
 71
    0
210
0
220
0
230
1
100
AcDbText
  0
TEXT
  5
1DF
100
AcDbEntity
  8
text
  6
ByLayer
 62
  256
370
   -1
100
AcDbText
 10
30500
 20
4300
 30
0
 40
100
  1
STR-T-02
 50
90
 41
1
 51
0
  7
standard
 71
    0
210
0
220
0
230
1
100
AcDbText
  0
TEXT
  5
1E0
100
AcDbEntity
  8
text
  6
ByLayer
 62
  256
370
   -1
100
AcDbText
 10
30500
 20
1600
 30
0
 40
100
  1
STR-T-03
 50
90
 41
1
 51
0
  7
standard
 71
    0
210
0
220
0
230
1
100
AcDbText
  0
TEXT
  5
1E1
100
AcDbEntity
  8
text
  6
ByLayer
 62
  256
370
   -1
100
AcDbText
 10
32500
 20
4300
 30
0
 40
100
  1
STR-U-01
 50
90
 41
1
 51
0
  7
standard
 71
    0
210
0
220
0
230
1
100
AcDbText
  0
TEXT
  5
1E2
100
AcDbEntity
  8
text
  6
ByLayer
 62
  256
370
   -1
100
AcDbText
 10
33700
 20
4300
 30
0
 40
100
  1
STR-U-02
 50
90
 41
1
 51
0
  7
standard
 71
    0
210
0
220
0
230
1
100
AcDbText
  0
TEXT
  5
1E3
100
AcDbEntity
  8
text
  6
ByLayer
 62
  256
370
   -1
100
AcDbText
 10
33700
 20
1600
 30
0
 40
100
  1
STR-U-03
 50
90
 41
1
 51
0
  7
standard
 71
    0
210
0
220
0
230
1
100
AcDbText
  0
TEXT
  5
1E4
100
AcDbEntity
  8
text
  6
ByLayer
 62
  256
370
   -1
100
AcDbText
 10
35600
 20
4300
 30
0
 40
100
  1
STR-V-01
 50
90
 41
1
 51
0
  7
standard
 71
    0
210
0
220
0
230
1
100
AcDbText
  0
TEXT
  5
1E5
100
AcDbEntity
  8
text
  6
ByLayer
 62
  256
370
   -1
100
AcDbText
 10
36900
 20
4400
 30
0
 40
100
  1
STR-V-02
 50
90
 41
1
 51
0
  7
standard
 71
    0
210
0
220
0
230
1
100
AcDbText
  0
TEXT
  5
1E6
100
AcDbEntity
  8
text
  6
ByLayer
 62
  256
370
   -1
100
AcDbText
 10
37300
 20
4300
 30
0
 40
100
  1
STR-V-03
 50
90
 41
1
 51
0
  7
standard
 71
    0
210
0
220
0
230
1
100
AcDbText
  0
TEXT
  5
1E7
100
AcDbEntity
  8
text
  6
ByLayer
 62
  256
370
   -1
100
AcDbText
 10
36900
 20
1300
 30
0
 40
100
  1
STR-V-04
 50
90
 41
1
 51
0
  7
standard
 71
    0
210
0
220
0
230
1
100
AcDbText
  0
TEXT
  5
1E8
100
AcDbEntity
  8
text
  6
ByLayer
 62
  256
370
   -1
100
AcDbText
 10
37300
 20
1200
 30
0
 40
100
  1
STR-V-5
 50
90
 41
1
 51
0
  7
standard
 71
    0
210
0
220
0
230
1
100
AcDbText
  0
TEXT
  5
1E9
100
AcDbEntity
  8
text
  6
ByLayer
 62
  256
370
   -1
100
AcDbText
 10
38660
 20
4400
 30
0
 40
100
  1
STR-W-01
 50
90
 41
1
 51
0
  7
standard
 71
    0
210
0
220
0
230
1
100
AcDbText
  0
TEXT
  5
1EA
100
AcDbEntity
  8
text
  6
ByLayer
 62
  256
370
   -1
100
AcDbText
 10
39900
 20
4300
 30
0
 40
100
  1
STR-W-02
 50
90
 41
1
 51
0
  7
standard
 71
    0
210
0
220
0
230
1
100
AcDbText
  0
TEXT
  5
1EB
100
AcDbEntity
  8
text
  6
ByLayer
 62
  256
370
   -1
100
AcDbText
 10
40900
 20
4300
 30
0
 40
100
  1
STR-W-03
 50
90
 41
1
 51
0
  7
standard
 71
    0
210
0
220
0
230
1
100
AcDbText
  0
TEXT
  5
1EC
100
AcDbEntity
  8
text
  6
ByLayer
 62
  256
370
   -1
100
AcDbText
 10
40010
 20
1740
 30
0
 40
90
  1
STR-W-04
 50
90
 41
1
 51
0
  7
standard
 71
    0
210
0
220
0
230
1
100
AcDbText
  0
TEXT
  5
1ED
100
AcDbEntity
  8
text
  6
ByLayer
 62
  256
370
   -1
100
AcDbText
 10
40900
 20
1600
 30
0
 40
100
  1
STR-W-05
 50
90
 41
1
 51
0
  7
standard
 71
    0
210
0
220
0
230
1
100
AcDbText
  0
TEXT
  5
1EE
100
AcDbEntity
  8
text
  6
ByLayer
 62
  256
370
   -1
100
AcDbText
 10
43200
 20
4300
 30
0
 40
100
  1
STR-X-01
 50
90
 41
1
 51
0
  7
standard
 71
    0
210
0
220
0
230
1
100
AcDbText
  0
TEXT
  5
1EF
100
AcDbEntity
  8
text
  6
ByLayer
 62
  256
370
   -1
100
AcDbText
 10
44500
 20
4400
 30
0
 40
100
  1
STR-X-02
 50
90
 41
1
 51
0
  7
standard
 71
    0
210
0
220
0
230
1
100
AcDbText
  0
TEXT
  5
1F0
100
AcDbEntity
  8
text
  6
ByLayer
 62
  256
370
   -1
100
AcDbText
 10
44900
 20
4300
 30
0
 40
100
  1
STR-X-03
 50
90
 41
1
 51
0
  7
standard
 71
    0
210
0
220
0
230
1
100
AcDbText
  0
TEXT
  5
1F1
100
AcDbEntity
  8
text
  6
ByLayer
 62
  256
370
   -1
100
AcDbText
 10
44500
 20
1700
 30
0
 40
100
  1
STR-X-04
 50
90
 41
1
 51
0
  7
standard
 71
    0
210
0
220
0
230
1
100
AcDbText
  0
TEXT
  5
1F2
100
AcDbEntity
  8
text
  6
ByLayer
 62
  256
370
   -1
100
AcDbText
 10
44900
 20
1600
 30
0
 40
100
  1
STR-X-05
 50
90
 41
1
 51
0
  7
standard
 71
    0
210
0
220
0
230
1
100
AcDbText
  0
TEXT
  5
1F3
100
AcDbEntity
  8
text
  6
ByLayer
 62
  256
370
   -1
100
AcDbText
 10
47200
 20
4300
 30
0
 40
100
  1
STR-Y-01
 50
90
 41
1
 51
0
  7
standard
 71
    0
210
0
220
0
230
1
100
AcDbText
  0
TEXT
  5
1F4
100
AcDbEntity
  8
text
  6
ByLayer
 62
  256
370
   -1
100
AcDbText
 10
48100
 20
4300
 30
0
 40
100
  1
STR-Y-02
 50
90
 41
1
 51
0
  7
standard
 71
    0
210
0
220
0
230
1
100
AcDbText
  0
TEXT
  5
1F5
100
AcDbEntity
  8
text
  6
ByLayer
 62
  256
370
   -1
100
AcDbText
 10
48200
 20
1600
 30
0
 40
100
  1
STR-Y-03
 50
90
 41
1
 51
0
  7
standard
 71
    0
210
0
220
0
230
1
100
AcDbText
  0
TEXT
  5
1F6
100
AcDbEntity
  8
text
  6
ByLayer
 62
  256
370
   -1
100
AcDbText
 10
50300
 20
4300
 30
0
 40
100
  1
STR-Z-01
 50
90
 41
1
 51
0
  7
standard
 71
    0
210
0
220
0
230
1
100
AcDbText
  0
TEXT
  5
1F7
100
AcDbEntity
  8
text
  6
ByLayer
 62
  256
370
   -1
100
AcDbText
 10
50900
 20
4300
 30
0
 40
100
  1
STR-Z-02
 50
90
 41
1
 51
0
  7
standard
 71
    0
210
0
220
0
230
1
100
AcDbText
  0
TEXT
  5
1F8
100
AcDbEntity
  8
text
  6
ByLayer
 62
  256
370
   -1
100
AcDbText
 10
50900
 20
1400
 30
0
 40
100
  1
STR-Z-03
 50
90
 41
1
 51
0
  7
standard
 71
    0
210
0
220
0
230
1
100
AcDbText
  0
ENDSEC
  0
SECTION
  2
OBJECTS
  0
DICTIONARY
  5
C
330
0
100
AcDbDictionary
281
    1
  3
ACAD_GROUP
350
D
  0
DICTIONARY
  5
D
330
C
100
AcDbDictionary
281
    1
  0
PLOTSETTINGS
  5
1F9
100
AcDbPlotSettings
  6
1x1
 40
0
 41
0
 42
0
 43
0
  0
ENDSEC
  0
EOF
